M48
; DRILL file {KiCad 8.0.5} date 2024-10-10T16:22:34-0500
; FORMAT={-:-/ absolute / metric / decimal}
; #@! TF.CreationDate,2024-10-10T16:22:34-05:00
; #@! TF.GenerationSoftware,Kicad,Pcbnew,8.0.5
; #@! TF.FileFunction,Plated,1,2,PTH
FMAT,2
METRIC
; #@! TA.AperFunction,Plated,PTH,ComponentDrill
T1C0.600
; #@! TA.AperFunction,Plated,PTH,ComponentDrill
T2C0.750
; #@! TA.AperFunction,Plated,PTH,ComponentDrill
T3C0.800
; #@! TA.AperFunction,Plated,PTH,ComponentDrill
T4C1.100
; #@! TA.AperFunction,Plated,PTH,ComponentDrill
T5C1.500
%
G90
G05
T1
X132.777Y-90.0
X134.277Y-90.0
T2
X108.23Y-118.36
X109.5Y-117.09
X110.77Y-118.36
T3
X103.5Y-116.92
X103.5Y-127.08
X115.5Y-116.84
X115.5Y-127.0
X119.92Y-101.0
X120.0Y-94.0
X120.0Y-106.455
X120.0Y-108.455
X121.5Y-115.42
X121.5Y-125.58
X127.92Y-106.88
X127.92Y-114.5
X129.5Y-120.5
X130.08Y-101.0
X130.16Y-94.0
X130.46Y-106.88
X130.46Y-114.5
X132.0Y-120.5
X133.0Y-106.88
X133.0Y-114.5
X135.54Y-106.88
X135.54Y-114.5
X136.0Y-102.5
X138.0Y-117.92
X138.0Y-128.08
X138.08Y-106.88
X138.08Y-114.5
X139.5Y-94.0
X140.62Y-106.88
X140.62Y-114.5
X141.0Y-102.5
X141.5Y-94.0
X143.16Y-106.88
X143.16Y-114.5
X144.475Y-138.075
X144.5Y-118.0
X144.5Y-123.0
X145.7Y-106.88
X145.7Y-114.5
X146.92Y-90.0
X147.015Y-138.075
X147.5Y-97.5
X147.5Y-102.5
X149.46Y-90.0
X149.555Y-138.075
X150.5Y-118.0
X150.5Y-123.0
X152.0Y-90.0
X156.0Y-98.5
X158.0Y-98.5
T4
X126.5Y-128.5
X129.04Y-128.5
X131.58Y-128.5
T5
X106.5Y-108.5
X117.0Y-140.0
X135.0Y-140.0
X158.0Y-108.5
M30
