%TF.GenerationSoftware,KiCad,Pcbnew,8.0.5*%
%TF.CreationDate,2024-10-10T16:22:24-05:00*%
%TF.ProjectId,Block-PT2399,426c6f63-6b2d-4505-9432-3339392e6b69,rev?*%
%TF.SameCoordinates,Original*%
%TF.FileFunction,Legend,Top*%
%TF.FilePolarity,Positive*%
%FSLAX46Y46*%
G04 Gerber Fmt 4.6, Leading zero omitted, Abs format (unit mm)*
G04 Created by KiCad (PCBNEW 8.0.5) date 2024-10-10 16:22:24*
%MOMM*%
%LPD*%
G01*
G04 APERTURE LIST*
%ADD10C,0.150000*%
%ADD11C,0.120000*%
G04 APERTURE END LIST*
D10*
X138333333Y-105059580D02*
X138285714Y-105107200D01*
X138285714Y-105107200D02*
X138142857Y-105154819D01*
X138142857Y-105154819D02*
X138047619Y-105154819D01*
X138047619Y-105154819D02*
X137904762Y-105107200D01*
X137904762Y-105107200D02*
X137809524Y-105011961D01*
X137809524Y-105011961D02*
X137761905Y-104916723D01*
X137761905Y-104916723D02*
X137714286Y-104726247D01*
X137714286Y-104726247D02*
X137714286Y-104583390D01*
X137714286Y-104583390D02*
X137761905Y-104392914D01*
X137761905Y-104392914D02*
X137809524Y-104297676D01*
X137809524Y-104297676D02*
X137904762Y-104202438D01*
X137904762Y-104202438D02*
X138047619Y-104154819D01*
X138047619Y-104154819D02*
X138142857Y-104154819D01*
X138142857Y-104154819D02*
X138285714Y-104202438D01*
X138285714Y-104202438D02*
X138333333Y-104250057D01*
X139190476Y-104154819D02*
X139000000Y-104154819D01*
X139000000Y-104154819D02*
X138904762Y-104202438D01*
X138904762Y-104202438D02*
X138857143Y-104250057D01*
X138857143Y-104250057D02*
X138761905Y-104392914D01*
X138761905Y-104392914D02*
X138714286Y-104583390D01*
X138714286Y-104583390D02*
X138714286Y-104964342D01*
X138714286Y-104964342D02*
X138761905Y-105059580D01*
X138761905Y-105059580D02*
X138809524Y-105107200D01*
X138809524Y-105107200D02*
X138904762Y-105154819D01*
X138904762Y-105154819D02*
X139095238Y-105154819D01*
X139095238Y-105154819D02*
X139190476Y-105107200D01*
X139190476Y-105107200D02*
X139238095Y-105059580D01*
X139238095Y-105059580D02*
X139285714Y-104964342D01*
X139285714Y-104964342D02*
X139285714Y-104726247D01*
X139285714Y-104726247D02*
X139238095Y-104631009D01*
X139238095Y-104631009D02*
X139190476Y-104583390D01*
X139190476Y-104583390D02*
X139095238Y-104535771D01*
X139095238Y-104535771D02*
X138904762Y-104535771D01*
X138904762Y-104535771D02*
X138809524Y-104583390D01*
X138809524Y-104583390D02*
X138761905Y-104631009D01*
X138761905Y-104631009D02*
X138714286Y-104726247D01*
X124833333Y-103824819D02*
X124500000Y-103348628D01*
X124261905Y-103824819D02*
X124261905Y-102824819D01*
X124261905Y-102824819D02*
X124642857Y-102824819D01*
X124642857Y-102824819D02*
X124738095Y-102872438D01*
X124738095Y-102872438D02*
X124785714Y-102920057D01*
X124785714Y-102920057D02*
X124833333Y-103015295D01*
X124833333Y-103015295D02*
X124833333Y-103158152D01*
X124833333Y-103158152D02*
X124785714Y-103253390D01*
X124785714Y-103253390D02*
X124738095Y-103301009D01*
X124738095Y-103301009D02*
X124642857Y-103348628D01*
X124642857Y-103348628D02*
X124261905Y-103348628D01*
X125690476Y-102824819D02*
X125500000Y-102824819D01*
X125500000Y-102824819D02*
X125404762Y-102872438D01*
X125404762Y-102872438D02*
X125357143Y-102920057D01*
X125357143Y-102920057D02*
X125261905Y-103062914D01*
X125261905Y-103062914D02*
X125214286Y-103253390D01*
X125214286Y-103253390D02*
X125214286Y-103634342D01*
X125214286Y-103634342D02*
X125261905Y-103729580D01*
X125261905Y-103729580D02*
X125309524Y-103777200D01*
X125309524Y-103777200D02*
X125404762Y-103824819D01*
X125404762Y-103824819D02*
X125595238Y-103824819D01*
X125595238Y-103824819D02*
X125690476Y-103777200D01*
X125690476Y-103777200D02*
X125738095Y-103729580D01*
X125738095Y-103729580D02*
X125785714Y-103634342D01*
X125785714Y-103634342D02*
X125785714Y-103396247D01*
X125785714Y-103396247D02*
X125738095Y-103301009D01*
X125738095Y-103301009D02*
X125690476Y-103253390D01*
X125690476Y-103253390D02*
X125595238Y-103205771D01*
X125595238Y-103205771D02*
X125404762Y-103205771D01*
X125404762Y-103205771D02*
X125309524Y-103253390D01*
X125309524Y-103253390D02*
X125261905Y-103301009D01*
X125261905Y-103301009D02*
X125214286Y-103396247D01*
X156833333Y-95109580D02*
X156785714Y-95157200D01*
X156785714Y-95157200D02*
X156642857Y-95204819D01*
X156642857Y-95204819D02*
X156547619Y-95204819D01*
X156547619Y-95204819D02*
X156404762Y-95157200D01*
X156404762Y-95157200D02*
X156309524Y-95061961D01*
X156309524Y-95061961D02*
X156261905Y-94966723D01*
X156261905Y-94966723D02*
X156214286Y-94776247D01*
X156214286Y-94776247D02*
X156214286Y-94633390D01*
X156214286Y-94633390D02*
X156261905Y-94442914D01*
X156261905Y-94442914D02*
X156309524Y-94347676D01*
X156309524Y-94347676D02*
X156404762Y-94252438D01*
X156404762Y-94252438D02*
X156547619Y-94204819D01*
X156547619Y-94204819D02*
X156642857Y-94204819D01*
X156642857Y-94204819D02*
X156785714Y-94252438D01*
X156785714Y-94252438D02*
X156833333Y-94300057D01*
X157166667Y-94204819D02*
X157833333Y-94204819D01*
X157833333Y-94204819D02*
X157404762Y-95204819D01*
X124913333Y-92084819D02*
X124580000Y-91608628D01*
X124341905Y-92084819D02*
X124341905Y-91084819D01*
X124341905Y-91084819D02*
X124722857Y-91084819D01*
X124722857Y-91084819D02*
X124818095Y-91132438D01*
X124818095Y-91132438D02*
X124865714Y-91180057D01*
X124865714Y-91180057D02*
X124913333Y-91275295D01*
X124913333Y-91275295D02*
X124913333Y-91418152D01*
X124913333Y-91418152D02*
X124865714Y-91513390D01*
X124865714Y-91513390D02*
X124818095Y-91561009D01*
X124818095Y-91561009D02*
X124722857Y-91608628D01*
X124722857Y-91608628D02*
X124341905Y-91608628D01*
X125246667Y-91084819D02*
X125913333Y-91084819D01*
X125913333Y-91084819D02*
X125484762Y-92084819D01*
X125044819Y-111451904D02*
X125854342Y-111451904D01*
X125854342Y-111451904D02*
X125949580Y-111404285D01*
X125949580Y-111404285D02*
X125997200Y-111356666D01*
X125997200Y-111356666D02*
X126044819Y-111261428D01*
X126044819Y-111261428D02*
X126044819Y-111070952D01*
X126044819Y-111070952D02*
X125997200Y-110975714D01*
X125997200Y-110975714D02*
X125949580Y-110928095D01*
X125949580Y-110928095D02*
X125854342Y-110880476D01*
X125854342Y-110880476D02*
X125044819Y-110880476D01*
X125140057Y-110451904D02*
X125092438Y-110404285D01*
X125092438Y-110404285D02*
X125044819Y-110309047D01*
X125044819Y-110309047D02*
X125044819Y-110070952D01*
X125044819Y-110070952D02*
X125092438Y-109975714D01*
X125092438Y-109975714D02*
X125140057Y-109928095D01*
X125140057Y-109928095D02*
X125235295Y-109880476D01*
X125235295Y-109880476D02*
X125330533Y-109880476D01*
X125330533Y-109880476D02*
X125473390Y-109928095D01*
X125473390Y-109928095D02*
X126044819Y-110499523D01*
X126044819Y-110499523D02*
X126044819Y-109880476D01*
X140333333Y-90609580D02*
X140285714Y-90657200D01*
X140285714Y-90657200D02*
X140142857Y-90704819D01*
X140142857Y-90704819D02*
X140047619Y-90704819D01*
X140047619Y-90704819D02*
X139904762Y-90657200D01*
X139904762Y-90657200D02*
X139809524Y-90561961D01*
X139809524Y-90561961D02*
X139761905Y-90466723D01*
X139761905Y-90466723D02*
X139714286Y-90276247D01*
X139714286Y-90276247D02*
X139714286Y-90133390D01*
X139714286Y-90133390D02*
X139761905Y-89942914D01*
X139761905Y-89942914D02*
X139809524Y-89847676D01*
X139809524Y-89847676D02*
X139904762Y-89752438D01*
X139904762Y-89752438D02*
X140047619Y-89704819D01*
X140047619Y-89704819D02*
X140142857Y-89704819D01*
X140142857Y-89704819D02*
X140285714Y-89752438D01*
X140285714Y-89752438D02*
X140333333Y-89800057D01*
X140809524Y-90704819D02*
X141000000Y-90704819D01*
X141000000Y-90704819D02*
X141095238Y-90657200D01*
X141095238Y-90657200D02*
X141142857Y-90609580D01*
X141142857Y-90609580D02*
X141238095Y-90466723D01*
X141238095Y-90466723D02*
X141285714Y-90276247D01*
X141285714Y-90276247D02*
X141285714Y-89895295D01*
X141285714Y-89895295D02*
X141238095Y-89800057D01*
X141238095Y-89800057D02*
X141190476Y-89752438D01*
X141190476Y-89752438D02*
X141095238Y-89704819D01*
X141095238Y-89704819D02*
X140904762Y-89704819D01*
X140904762Y-89704819D02*
X140809524Y-89752438D01*
X140809524Y-89752438D02*
X140761905Y-89800057D01*
X140761905Y-89800057D02*
X140714286Y-89895295D01*
X140714286Y-89895295D02*
X140714286Y-90133390D01*
X140714286Y-90133390D02*
X140761905Y-90228628D01*
X140761905Y-90228628D02*
X140809524Y-90276247D01*
X140809524Y-90276247D02*
X140904762Y-90323866D01*
X140904762Y-90323866D02*
X141095238Y-90323866D01*
X141095238Y-90323866D02*
X141190476Y-90276247D01*
X141190476Y-90276247D02*
X141238095Y-90228628D01*
X141238095Y-90228628D02*
X141285714Y-90133390D01*
X109404761Y-115350057D02*
X109309523Y-115302438D01*
X109309523Y-115302438D02*
X109214285Y-115207200D01*
X109214285Y-115207200D02*
X109071428Y-115064342D01*
X109071428Y-115064342D02*
X108976190Y-115016723D01*
X108976190Y-115016723D02*
X108880952Y-115016723D01*
X108928571Y-115254819D02*
X108833333Y-115207200D01*
X108833333Y-115207200D02*
X108738095Y-115111961D01*
X108738095Y-115111961D02*
X108690476Y-114921485D01*
X108690476Y-114921485D02*
X108690476Y-114588152D01*
X108690476Y-114588152D02*
X108738095Y-114397676D01*
X108738095Y-114397676D02*
X108833333Y-114302438D01*
X108833333Y-114302438D02*
X108928571Y-114254819D01*
X108928571Y-114254819D02*
X109119047Y-114254819D01*
X109119047Y-114254819D02*
X109214285Y-114302438D01*
X109214285Y-114302438D02*
X109309523Y-114397676D01*
X109309523Y-114397676D02*
X109357142Y-114588152D01*
X109357142Y-114588152D02*
X109357142Y-114921485D01*
X109357142Y-114921485D02*
X109309523Y-115111961D01*
X109309523Y-115111961D02*
X109214285Y-115207200D01*
X109214285Y-115207200D02*
X109119047Y-115254819D01*
X109119047Y-115254819D02*
X108928571Y-115254819D01*
X110309523Y-115254819D02*
X109738095Y-115254819D01*
X110023809Y-115254819D02*
X110023809Y-114254819D01*
X110023809Y-114254819D02*
X109928571Y-114397676D01*
X109928571Y-114397676D02*
X109833333Y-114492914D01*
X109833333Y-114492914D02*
X109738095Y-114540533D01*
X110664819Y-108833333D02*
X111379104Y-108833333D01*
X111379104Y-108833333D02*
X111521961Y-108880952D01*
X111521961Y-108880952D02*
X111617200Y-108976190D01*
X111617200Y-108976190D02*
X111664819Y-109119047D01*
X111664819Y-109119047D02*
X111664819Y-109214285D01*
X111664819Y-107833333D02*
X111664819Y-108404761D01*
X111664819Y-108119047D02*
X110664819Y-108119047D01*
X110664819Y-108119047D02*
X110807676Y-108214285D01*
X110807676Y-108214285D02*
X110902914Y-108309523D01*
X110902914Y-108309523D02*
X110950533Y-108404761D01*
X148864761Y-93864819D02*
X148531428Y-93388628D01*
X148293333Y-93864819D02*
X148293333Y-92864819D01*
X148293333Y-92864819D02*
X148674285Y-92864819D01*
X148674285Y-92864819D02*
X148769523Y-92912438D01*
X148769523Y-92912438D02*
X148817142Y-92960057D01*
X148817142Y-92960057D02*
X148864761Y-93055295D01*
X148864761Y-93055295D02*
X148864761Y-93198152D01*
X148864761Y-93198152D02*
X148817142Y-93293390D01*
X148817142Y-93293390D02*
X148769523Y-93341009D01*
X148769523Y-93341009D02*
X148674285Y-93388628D01*
X148674285Y-93388628D02*
X148293333Y-93388628D01*
X149150476Y-92864819D02*
X149483809Y-93864819D01*
X149483809Y-93864819D02*
X149817142Y-92864819D01*
X150102857Y-92960057D02*
X150150476Y-92912438D01*
X150150476Y-92912438D02*
X150245714Y-92864819D01*
X150245714Y-92864819D02*
X150483809Y-92864819D01*
X150483809Y-92864819D02*
X150579047Y-92912438D01*
X150579047Y-92912438D02*
X150626666Y-92960057D01*
X150626666Y-92960057D02*
X150674285Y-93055295D01*
X150674285Y-93055295D02*
X150674285Y-93150533D01*
X150674285Y-93150533D02*
X150626666Y-93293390D01*
X150626666Y-93293390D02*
X150055238Y-93864819D01*
X150055238Y-93864819D02*
X150674285Y-93864819D01*
X128278095Y-132224819D02*
X128278095Y-133034342D01*
X128278095Y-133034342D02*
X128325714Y-133129580D01*
X128325714Y-133129580D02*
X128373333Y-133177200D01*
X128373333Y-133177200D02*
X128468571Y-133224819D01*
X128468571Y-133224819D02*
X128659047Y-133224819D01*
X128659047Y-133224819D02*
X128754285Y-133177200D01*
X128754285Y-133177200D02*
X128801904Y-133129580D01*
X128801904Y-133129580D02*
X128849523Y-133034342D01*
X128849523Y-133034342D02*
X128849523Y-132224819D01*
X129849523Y-133224819D02*
X129278095Y-133224819D01*
X129563809Y-133224819D02*
X129563809Y-132224819D01*
X129563809Y-132224819D02*
X129468571Y-132367676D01*
X129468571Y-132367676D02*
X129373333Y-132462914D01*
X129373333Y-132462914D02*
X129278095Y-132510533D01*
X134666666Y-134744819D02*
X134666666Y-135459104D01*
X134666666Y-135459104D02*
X134619047Y-135601961D01*
X134619047Y-135601961D02*
X134523809Y-135697200D01*
X134523809Y-135697200D02*
X134380952Y-135744819D01*
X134380952Y-135744819D02*
X134285714Y-135744819D01*
X135571428Y-135078152D02*
X135571428Y-135744819D01*
X135333333Y-134697200D02*
X135095238Y-135411485D01*
X135095238Y-135411485D02*
X135714285Y-135411485D01*
X152744819Y-108833333D02*
X153459104Y-108833333D01*
X153459104Y-108833333D02*
X153601961Y-108880952D01*
X153601961Y-108880952D02*
X153697200Y-108976190D01*
X153697200Y-108976190D02*
X153744819Y-109119047D01*
X153744819Y-109119047D02*
X153744819Y-109214285D01*
X152840057Y-108404761D02*
X152792438Y-108357142D01*
X152792438Y-108357142D02*
X152744819Y-108261904D01*
X152744819Y-108261904D02*
X152744819Y-108023809D01*
X152744819Y-108023809D02*
X152792438Y-107928571D01*
X152792438Y-107928571D02*
X152840057Y-107880952D01*
X152840057Y-107880952D02*
X152935295Y-107833333D01*
X152935295Y-107833333D02*
X153030533Y-107833333D01*
X153030533Y-107833333D02*
X153173390Y-107880952D01*
X153173390Y-107880952D02*
X153744819Y-108452380D01*
X153744819Y-108452380D02*
X153744819Y-107833333D01*
X146419761Y-141939819D02*
X146086428Y-141463628D01*
X145848333Y-141939819D02*
X145848333Y-140939819D01*
X145848333Y-140939819D02*
X146229285Y-140939819D01*
X146229285Y-140939819D02*
X146324523Y-140987438D01*
X146324523Y-140987438D02*
X146372142Y-141035057D01*
X146372142Y-141035057D02*
X146419761Y-141130295D01*
X146419761Y-141130295D02*
X146419761Y-141273152D01*
X146419761Y-141273152D02*
X146372142Y-141368390D01*
X146372142Y-141368390D02*
X146324523Y-141416009D01*
X146324523Y-141416009D02*
X146229285Y-141463628D01*
X146229285Y-141463628D02*
X145848333Y-141463628D01*
X146705476Y-140939819D02*
X147038809Y-141939819D01*
X147038809Y-141939819D02*
X147372142Y-140939819D01*
X148229285Y-141939819D02*
X147657857Y-141939819D01*
X147943571Y-141939819D02*
X147943571Y-140939819D01*
X147943571Y-140939819D02*
X147848333Y-141082676D01*
X147848333Y-141082676D02*
X147753095Y-141177914D01*
X147753095Y-141177914D02*
X147657857Y-141225533D01*
X116666666Y-134744819D02*
X116666666Y-135459104D01*
X116666666Y-135459104D02*
X116619047Y-135601961D01*
X116619047Y-135601961D02*
X116523809Y-135697200D01*
X116523809Y-135697200D02*
X116380952Y-135744819D01*
X116380952Y-135744819D02*
X116285714Y-135744819D01*
X117047619Y-134744819D02*
X117666666Y-134744819D01*
X117666666Y-134744819D02*
X117333333Y-135125771D01*
X117333333Y-135125771D02*
X117476190Y-135125771D01*
X117476190Y-135125771D02*
X117571428Y-135173390D01*
X117571428Y-135173390D02*
X117619047Y-135221009D01*
X117619047Y-135221009D02*
X117666666Y-135316247D01*
X117666666Y-135316247D02*
X117666666Y-135554342D01*
X117666666Y-135554342D02*
X117619047Y-135649580D01*
X117619047Y-135649580D02*
X117571428Y-135697200D01*
X117571428Y-135697200D02*
X117476190Y-135744819D01*
X117476190Y-135744819D02*
X117190476Y-135744819D01*
X117190476Y-135744819D02*
X117095238Y-135697200D01*
X117095238Y-135697200D02*
X117047619Y-135649580D01*
X113584819Y-122086666D02*
X113108628Y-122419999D01*
X113584819Y-122658094D02*
X112584819Y-122658094D01*
X112584819Y-122658094D02*
X112584819Y-122277142D01*
X112584819Y-122277142D02*
X112632438Y-122181904D01*
X112632438Y-122181904D02*
X112680057Y-122134285D01*
X112680057Y-122134285D02*
X112775295Y-122086666D01*
X112775295Y-122086666D02*
X112918152Y-122086666D01*
X112918152Y-122086666D02*
X113013390Y-122134285D01*
X113013390Y-122134285D02*
X113061009Y-122181904D01*
X113061009Y-122181904D02*
X113108628Y-122277142D01*
X113108628Y-122277142D02*
X113108628Y-122658094D01*
X113584819Y-121134285D02*
X113584819Y-121705713D01*
X113584819Y-121419999D02*
X112584819Y-121419999D01*
X112584819Y-121419999D02*
X112727676Y-121515237D01*
X112727676Y-121515237D02*
X112822914Y-121610475D01*
X112822914Y-121610475D02*
X112870533Y-121705713D01*
X153059580Y-120666666D02*
X153107200Y-120714285D01*
X153107200Y-120714285D02*
X153154819Y-120857142D01*
X153154819Y-120857142D02*
X153154819Y-120952380D01*
X153154819Y-120952380D02*
X153107200Y-121095237D01*
X153107200Y-121095237D02*
X153011961Y-121190475D01*
X153011961Y-121190475D02*
X152916723Y-121238094D01*
X152916723Y-121238094D02*
X152726247Y-121285713D01*
X152726247Y-121285713D02*
X152583390Y-121285713D01*
X152583390Y-121285713D02*
X152392914Y-121238094D01*
X152392914Y-121238094D02*
X152297676Y-121190475D01*
X152297676Y-121190475D02*
X152202438Y-121095237D01*
X152202438Y-121095237D02*
X152154819Y-120952380D01*
X152154819Y-120952380D02*
X152154819Y-120857142D01*
X152154819Y-120857142D02*
X152202438Y-120714285D01*
X152202438Y-120714285D02*
X152250057Y-120666666D01*
X152488152Y-119809523D02*
X153154819Y-119809523D01*
X152107200Y-120047618D02*
X152821485Y-120285713D01*
X152821485Y-120285713D02*
X152821485Y-119666666D01*
X136084819Y-123166666D02*
X135608628Y-123499999D01*
X136084819Y-123738094D02*
X135084819Y-123738094D01*
X135084819Y-123738094D02*
X135084819Y-123357142D01*
X135084819Y-123357142D02*
X135132438Y-123261904D01*
X135132438Y-123261904D02*
X135180057Y-123214285D01*
X135180057Y-123214285D02*
X135275295Y-123166666D01*
X135275295Y-123166666D02*
X135418152Y-123166666D01*
X135418152Y-123166666D02*
X135513390Y-123214285D01*
X135513390Y-123214285D02*
X135561009Y-123261904D01*
X135561009Y-123261904D02*
X135608628Y-123357142D01*
X135608628Y-123357142D02*
X135608628Y-123738094D01*
X135418152Y-122309523D02*
X136084819Y-122309523D01*
X135037200Y-122547618D02*
X135751485Y-122785713D01*
X135751485Y-122785713D02*
X135751485Y-122166666D01*
X133360734Y-87109580D02*
X133313115Y-87157200D01*
X133313115Y-87157200D02*
X133170258Y-87204819D01*
X133170258Y-87204819D02*
X133075020Y-87204819D01*
X133075020Y-87204819D02*
X132932163Y-87157200D01*
X132932163Y-87157200D02*
X132836925Y-87061961D01*
X132836925Y-87061961D02*
X132789306Y-86966723D01*
X132789306Y-86966723D02*
X132741687Y-86776247D01*
X132741687Y-86776247D02*
X132741687Y-86633390D01*
X132741687Y-86633390D02*
X132789306Y-86442914D01*
X132789306Y-86442914D02*
X132836925Y-86347676D01*
X132836925Y-86347676D02*
X132932163Y-86252438D01*
X132932163Y-86252438D02*
X133075020Y-86204819D01*
X133075020Y-86204819D02*
X133170258Y-86204819D01*
X133170258Y-86204819D02*
X133313115Y-86252438D01*
X133313115Y-86252438D02*
X133360734Y-86300057D01*
X133932163Y-86633390D02*
X133836925Y-86585771D01*
X133836925Y-86585771D02*
X133789306Y-86538152D01*
X133789306Y-86538152D02*
X133741687Y-86442914D01*
X133741687Y-86442914D02*
X133741687Y-86395295D01*
X133741687Y-86395295D02*
X133789306Y-86300057D01*
X133789306Y-86300057D02*
X133836925Y-86252438D01*
X133836925Y-86252438D02*
X133932163Y-86204819D01*
X133932163Y-86204819D02*
X134122639Y-86204819D01*
X134122639Y-86204819D02*
X134217877Y-86252438D01*
X134217877Y-86252438D02*
X134265496Y-86300057D01*
X134265496Y-86300057D02*
X134313115Y-86395295D01*
X134313115Y-86395295D02*
X134313115Y-86442914D01*
X134313115Y-86442914D02*
X134265496Y-86538152D01*
X134265496Y-86538152D02*
X134217877Y-86585771D01*
X134217877Y-86585771D02*
X134122639Y-86633390D01*
X134122639Y-86633390D02*
X133932163Y-86633390D01*
X133932163Y-86633390D02*
X133836925Y-86681009D01*
X133836925Y-86681009D02*
X133789306Y-86728628D01*
X133789306Y-86728628D02*
X133741687Y-86823866D01*
X133741687Y-86823866D02*
X133741687Y-87014342D01*
X133741687Y-87014342D02*
X133789306Y-87109580D01*
X133789306Y-87109580D02*
X133836925Y-87157200D01*
X133836925Y-87157200D02*
X133932163Y-87204819D01*
X133932163Y-87204819D02*
X134122639Y-87204819D01*
X134122639Y-87204819D02*
X134217877Y-87157200D01*
X134217877Y-87157200D02*
X134265496Y-87109580D01*
X134265496Y-87109580D02*
X134313115Y-87014342D01*
X134313115Y-87014342D02*
X134313115Y-86823866D01*
X134313115Y-86823866D02*
X134265496Y-86728628D01*
X134265496Y-86728628D02*
X134217877Y-86681009D01*
X134217877Y-86681009D02*
X134122639Y-86633390D01*
X150059580Y-100166666D02*
X150107200Y-100214285D01*
X150107200Y-100214285D02*
X150154819Y-100357142D01*
X150154819Y-100357142D02*
X150154819Y-100452380D01*
X150154819Y-100452380D02*
X150107200Y-100595237D01*
X150107200Y-100595237D02*
X150011961Y-100690475D01*
X150011961Y-100690475D02*
X149916723Y-100738094D01*
X149916723Y-100738094D02*
X149726247Y-100785713D01*
X149726247Y-100785713D02*
X149583390Y-100785713D01*
X149583390Y-100785713D02*
X149392914Y-100738094D01*
X149392914Y-100738094D02*
X149297676Y-100690475D01*
X149297676Y-100690475D02*
X149202438Y-100595237D01*
X149202438Y-100595237D02*
X149154819Y-100452380D01*
X149154819Y-100452380D02*
X149154819Y-100357142D01*
X149154819Y-100357142D02*
X149202438Y-100214285D01*
X149202438Y-100214285D02*
X149250057Y-100166666D01*
X149154819Y-99261904D02*
X149154819Y-99738094D01*
X149154819Y-99738094D02*
X149631009Y-99785713D01*
X149631009Y-99785713D02*
X149583390Y-99738094D01*
X149583390Y-99738094D02*
X149535771Y-99642856D01*
X149535771Y-99642856D02*
X149535771Y-99404761D01*
X149535771Y-99404761D02*
X149583390Y-99309523D01*
X149583390Y-99309523D02*
X149631009Y-99261904D01*
X149631009Y-99261904D02*
X149726247Y-99214285D01*
X149726247Y-99214285D02*
X149964342Y-99214285D01*
X149964342Y-99214285D02*
X150059580Y-99261904D01*
X150059580Y-99261904D02*
X150107200Y-99309523D01*
X150107200Y-99309523D02*
X150154819Y-99404761D01*
X150154819Y-99404761D02*
X150154819Y-99642856D01*
X150154819Y-99642856D02*
X150107200Y-99738094D01*
X150107200Y-99738094D02*
X150059580Y-99785713D01*
X147059580Y-120666666D02*
X147107200Y-120714285D01*
X147107200Y-120714285D02*
X147154819Y-120857142D01*
X147154819Y-120857142D02*
X147154819Y-120952380D01*
X147154819Y-120952380D02*
X147107200Y-121095237D01*
X147107200Y-121095237D02*
X147011961Y-121190475D01*
X147011961Y-121190475D02*
X146916723Y-121238094D01*
X146916723Y-121238094D02*
X146726247Y-121285713D01*
X146726247Y-121285713D02*
X146583390Y-121285713D01*
X146583390Y-121285713D02*
X146392914Y-121238094D01*
X146392914Y-121238094D02*
X146297676Y-121190475D01*
X146297676Y-121190475D02*
X146202438Y-121095237D01*
X146202438Y-121095237D02*
X146154819Y-120952380D01*
X146154819Y-120952380D02*
X146154819Y-120857142D01*
X146154819Y-120857142D02*
X146202438Y-120714285D01*
X146202438Y-120714285D02*
X146250057Y-120666666D01*
X146154819Y-120333332D02*
X146154819Y-119714285D01*
X146154819Y-119714285D02*
X146535771Y-120047618D01*
X146535771Y-120047618D02*
X146535771Y-119904761D01*
X146535771Y-119904761D02*
X146583390Y-119809523D01*
X146583390Y-119809523D02*
X146631009Y-119761904D01*
X146631009Y-119761904D02*
X146726247Y-119714285D01*
X146726247Y-119714285D02*
X146964342Y-119714285D01*
X146964342Y-119714285D02*
X147059580Y-119761904D01*
X147059580Y-119761904D02*
X147107200Y-119809523D01*
X147107200Y-119809523D02*
X147154819Y-119904761D01*
X147154819Y-119904761D02*
X147154819Y-120190475D01*
X147154819Y-120190475D02*
X147107200Y-120285713D01*
X147107200Y-120285713D02*
X147059580Y-120333332D01*
X124324819Y-120666666D02*
X123848628Y-120999999D01*
X124324819Y-121238094D02*
X123324819Y-121238094D01*
X123324819Y-121238094D02*
X123324819Y-120857142D01*
X123324819Y-120857142D02*
X123372438Y-120761904D01*
X123372438Y-120761904D02*
X123420057Y-120714285D01*
X123420057Y-120714285D02*
X123515295Y-120666666D01*
X123515295Y-120666666D02*
X123658152Y-120666666D01*
X123658152Y-120666666D02*
X123753390Y-120714285D01*
X123753390Y-120714285D02*
X123801009Y-120761904D01*
X123801009Y-120761904D02*
X123848628Y-120857142D01*
X123848628Y-120857142D02*
X123848628Y-121238094D01*
X123324819Y-120333332D02*
X123324819Y-119714285D01*
X123324819Y-119714285D02*
X123705771Y-120047618D01*
X123705771Y-120047618D02*
X123705771Y-119904761D01*
X123705771Y-119904761D02*
X123753390Y-119809523D01*
X123753390Y-119809523D02*
X123801009Y-119761904D01*
X123801009Y-119761904D02*
X123896247Y-119714285D01*
X123896247Y-119714285D02*
X124134342Y-119714285D01*
X124134342Y-119714285D02*
X124229580Y-119761904D01*
X124229580Y-119761904D02*
X124277200Y-119809523D01*
X124277200Y-119809523D02*
X124324819Y-119904761D01*
X124324819Y-119904761D02*
X124324819Y-120190475D01*
X124324819Y-120190475D02*
X124277200Y-120285713D01*
X124277200Y-120285713D02*
X124229580Y-120333332D01*
X130583333Y-117109580D02*
X130535714Y-117157200D01*
X130535714Y-117157200D02*
X130392857Y-117204819D01*
X130392857Y-117204819D02*
X130297619Y-117204819D01*
X130297619Y-117204819D02*
X130154762Y-117157200D01*
X130154762Y-117157200D02*
X130059524Y-117061961D01*
X130059524Y-117061961D02*
X130011905Y-116966723D01*
X130011905Y-116966723D02*
X129964286Y-116776247D01*
X129964286Y-116776247D02*
X129964286Y-116633390D01*
X129964286Y-116633390D02*
X130011905Y-116442914D01*
X130011905Y-116442914D02*
X130059524Y-116347676D01*
X130059524Y-116347676D02*
X130154762Y-116252438D01*
X130154762Y-116252438D02*
X130297619Y-116204819D01*
X130297619Y-116204819D02*
X130392857Y-116204819D01*
X130392857Y-116204819D02*
X130535714Y-116252438D01*
X130535714Y-116252438D02*
X130583333Y-116300057D01*
X130964286Y-116300057D02*
X131011905Y-116252438D01*
X131011905Y-116252438D02*
X131107143Y-116204819D01*
X131107143Y-116204819D02*
X131345238Y-116204819D01*
X131345238Y-116204819D02*
X131440476Y-116252438D01*
X131440476Y-116252438D02*
X131488095Y-116300057D01*
X131488095Y-116300057D02*
X131535714Y-116395295D01*
X131535714Y-116395295D02*
X131535714Y-116490533D01*
X131535714Y-116490533D02*
X131488095Y-116633390D01*
X131488095Y-116633390D02*
X130916667Y-117204819D01*
X130916667Y-117204819D02*
X131535714Y-117204819D01*
X116609580Y-107621779D02*
X116657200Y-107669398D01*
X116657200Y-107669398D02*
X116704819Y-107812255D01*
X116704819Y-107812255D02*
X116704819Y-107907493D01*
X116704819Y-107907493D02*
X116657200Y-108050350D01*
X116657200Y-108050350D02*
X116561961Y-108145588D01*
X116561961Y-108145588D02*
X116466723Y-108193207D01*
X116466723Y-108193207D02*
X116276247Y-108240826D01*
X116276247Y-108240826D02*
X116133390Y-108240826D01*
X116133390Y-108240826D02*
X115942914Y-108193207D01*
X115942914Y-108193207D02*
X115847676Y-108145588D01*
X115847676Y-108145588D02*
X115752438Y-108050350D01*
X115752438Y-108050350D02*
X115704819Y-107907493D01*
X115704819Y-107907493D02*
X115704819Y-107812255D01*
X115704819Y-107812255D02*
X115752438Y-107669398D01*
X115752438Y-107669398D02*
X115800057Y-107621779D01*
X116704819Y-106669398D02*
X116704819Y-107240826D01*
X116704819Y-106955112D02*
X115704819Y-106955112D01*
X115704819Y-106955112D02*
X115847676Y-107050350D01*
X115847676Y-107050350D02*
X115942914Y-107145588D01*
X115942914Y-107145588D02*
X115990533Y-107240826D01*
X106324819Y-122166666D02*
X105848628Y-122499999D01*
X106324819Y-122738094D02*
X105324819Y-122738094D01*
X105324819Y-122738094D02*
X105324819Y-122357142D01*
X105324819Y-122357142D02*
X105372438Y-122261904D01*
X105372438Y-122261904D02*
X105420057Y-122214285D01*
X105420057Y-122214285D02*
X105515295Y-122166666D01*
X105515295Y-122166666D02*
X105658152Y-122166666D01*
X105658152Y-122166666D02*
X105753390Y-122214285D01*
X105753390Y-122214285D02*
X105801009Y-122261904D01*
X105801009Y-122261904D02*
X105848628Y-122357142D01*
X105848628Y-122357142D02*
X105848628Y-122738094D01*
X105420057Y-121785713D02*
X105372438Y-121738094D01*
X105372438Y-121738094D02*
X105324819Y-121642856D01*
X105324819Y-121642856D02*
X105324819Y-121404761D01*
X105324819Y-121404761D02*
X105372438Y-121309523D01*
X105372438Y-121309523D02*
X105420057Y-121261904D01*
X105420057Y-121261904D02*
X105515295Y-121214285D01*
X105515295Y-121214285D02*
X105610533Y-121214285D01*
X105610533Y-121214285D02*
X105753390Y-121261904D01*
X105753390Y-121261904D02*
X106324819Y-121833332D01*
X106324819Y-121833332D02*
X106324819Y-121214285D01*
D11*
%TO.C,C6*%
X136230000Y-101445000D02*
X136230000Y-101430000D01*
X136230000Y-103570000D02*
X136230000Y-103555000D01*
X140770000Y-101430000D02*
X136230000Y-101430000D01*
X140770000Y-101445000D02*
X140770000Y-101430000D01*
X140770000Y-103570000D02*
X136230000Y-103570000D01*
X140770000Y-103570000D02*
X140770000Y-103555000D01*
%TO.C,R6*%
X120960000Y-101000000D02*
X121730000Y-101000000D01*
X121730000Y-99630000D02*
X121730000Y-102370000D01*
X121730000Y-102370000D02*
X128270000Y-102370000D01*
X128270000Y-99630000D02*
X121730000Y-99630000D01*
X128270000Y-102370000D02*
X128270000Y-99630000D01*
X129040000Y-101000000D02*
X128270000Y-101000000D01*
%TO.C,C7*%
X154195225Y-97025000D02*
X154695225Y-97025000D01*
X154445225Y-96775000D02*
X154445225Y-97275000D01*
X157000000Y-95920000D02*
X157000000Y-97460000D01*
X157000000Y-99540000D02*
X157000000Y-101080000D01*
X157040000Y-95920000D02*
X157040000Y-97460000D01*
X157040000Y-99540000D02*
X157040000Y-101080000D01*
X157080000Y-95921000D02*
X157080000Y-97460000D01*
X157080000Y-99540000D02*
X157080000Y-101079000D01*
X157120000Y-95922000D02*
X157120000Y-97460000D01*
X157120000Y-99540000D02*
X157120000Y-101078000D01*
X157160000Y-95924000D02*
X157160000Y-97460000D01*
X157160000Y-99540000D02*
X157160000Y-101076000D01*
X157200000Y-95927000D02*
X157200000Y-97460000D01*
X157200000Y-99540000D02*
X157200000Y-101073000D01*
X157240000Y-95931000D02*
X157240000Y-97460000D01*
X157240000Y-99540000D02*
X157240000Y-101069000D01*
X157280000Y-95935000D02*
X157280000Y-97460000D01*
X157280000Y-99540000D02*
X157280000Y-101065000D01*
X157320000Y-95939000D02*
X157320000Y-97460000D01*
X157320000Y-99540000D02*
X157320000Y-101061000D01*
X157360000Y-95944000D02*
X157360000Y-97460000D01*
X157360000Y-99540000D02*
X157360000Y-101056000D01*
X157400000Y-95950000D02*
X157400000Y-97460000D01*
X157400000Y-99540000D02*
X157400000Y-101050000D01*
X157440000Y-95957000D02*
X157440000Y-97460000D01*
X157440000Y-99540000D02*
X157440000Y-101043000D01*
X157480000Y-95964000D02*
X157480000Y-97460000D01*
X157480000Y-99540000D02*
X157480000Y-101036000D01*
X157520000Y-95972000D02*
X157520000Y-97460000D01*
X157520000Y-99540000D02*
X157520000Y-101028000D01*
X157560000Y-95980000D02*
X157560000Y-97460000D01*
X157560000Y-99540000D02*
X157560000Y-101020000D01*
X157600000Y-95989000D02*
X157600000Y-97460000D01*
X157600000Y-99540000D02*
X157600000Y-101011000D01*
X157640000Y-95999000D02*
X157640000Y-97460000D01*
X157640000Y-99540000D02*
X157640000Y-101001000D01*
X157680000Y-96009000D02*
X157680000Y-97460000D01*
X157680000Y-99540000D02*
X157680000Y-100991000D01*
X157721000Y-96020000D02*
X157721000Y-97460000D01*
X157721000Y-99540000D02*
X157721000Y-100980000D01*
X157761000Y-96032000D02*
X157761000Y-97460000D01*
X157761000Y-99540000D02*
X157761000Y-100968000D01*
X157801000Y-96045000D02*
X157801000Y-97460000D01*
X157801000Y-99540000D02*
X157801000Y-100955000D01*
X157841000Y-96058000D02*
X157841000Y-97460000D01*
X157841000Y-99540000D02*
X157841000Y-100942000D01*
X157881000Y-96072000D02*
X157881000Y-97460000D01*
X157881000Y-99540000D02*
X157881000Y-100928000D01*
X157921000Y-96086000D02*
X157921000Y-97460000D01*
X157921000Y-99540000D02*
X157921000Y-100914000D01*
X157961000Y-96102000D02*
X157961000Y-97460000D01*
X157961000Y-99540000D02*
X157961000Y-100898000D01*
X158001000Y-96118000D02*
X158001000Y-97460000D01*
X158001000Y-99540000D02*
X158001000Y-100882000D01*
X158041000Y-96135000D02*
X158041000Y-97460000D01*
X158041000Y-99540000D02*
X158041000Y-100865000D01*
X158081000Y-96152000D02*
X158081000Y-97460000D01*
X158081000Y-99540000D02*
X158081000Y-100848000D01*
X158121000Y-96171000D02*
X158121000Y-97460000D01*
X158121000Y-99540000D02*
X158121000Y-100829000D01*
X158161000Y-96190000D02*
X158161000Y-97460000D01*
X158161000Y-99540000D02*
X158161000Y-100810000D01*
X158201000Y-96210000D02*
X158201000Y-97460000D01*
X158201000Y-99540000D02*
X158201000Y-100790000D01*
X158241000Y-96232000D02*
X158241000Y-97460000D01*
X158241000Y-99540000D02*
X158241000Y-100768000D01*
X158281000Y-96253000D02*
X158281000Y-97460000D01*
X158281000Y-99540000D02*
X158281000Y-100747000D01*
X158321000Y-96276000D02*
X158321000Y-97460000D01*
X158321000Y-99540000D02*
X158321000Y-100724000D01*
X158361000Y-96300000D02*
X158361000Y-97460000D01*
X158361000Y-99540000D02*
X158361000Y-100700000D01*
X158401000Y-96325000D02*
X158401000Y-97460000D01*
X158401000Y-99540000D02*
X158401000Y-100675000D01*
X158441000Y-96351000D02*
X158441000Y-97460000D01*
X158441000Y-99540000D02*
X158441000Y-100649000D01*
X158481000Y-96378000D02*
X158481000Y-97460000D01*
X158481000Y-99540000D02*
X158481000Y-100622000D01*
X158521000Y-96405000D02*
X158521000Y-97460000D01*
X158521000Y-99540000D02*
X158521000Y-100595000D01*
X158561000Y-96435000D02*
X158561000Y-97460000D01*
X158561000Y-99540000D02*
X158561000Y-100565000D01*
X158601000Y-96465000D02*
X158601000Y-97460000D01*
X158601000Y-99540000D02*
X158601000Y-100535000D01*
X158641000Y-96496000D02*
X158641000Y-97460000D01*
X158641000Y-99540000D02*
X158641000Y-100504000D01*
X158681000Y-96529000D02*
X158681000Y-97460000D01*
X158681000Y-99540000D02*
X158681000Y-100471000D01*
X158721000Y-96563000D02*
X158721000Y-97460000D01*
X158721000Y-99540000D02*
X158721000Y-100437000D01*
X158761000Y-96599000D02*
X158761000Y-97460000D01*
X158761000Y-99540000D02*
X158761000Y-100401000D01*
X158801000Y-96636000D02*
X158801000Y-97460000D01*
X158801000Y-99540000D02*
X158801000Y-100364000D01*
X158841000Y-96674000D02*
X158841000Y-97460000D01*
X158841000Y-99540000D02*
X158841000Y-100326000D01*
X158881000Y-96715000D02*
X158881000Y-97460000D01*
X158881000Y-99540000D02*
X158881000Y-100285000D01*
X158921000Y-96757000D02*
X158921000Y-97460000D01*
X158921000Y-99540000D02*
X158921000Y-100243000D01*
X158961000Y-96801000D02*
X158961000Y-97460000D01*
X158961000Y-99540000D02*
X158961000Y-100199000D01*
X159001000Y-96847000D02*
X159001000Y-97460000D01*
X159001000Y-99540000D02*
X159001000Y-100153000D01*
X159041000Y-96895000D02*
X159041000Y-100105000D01*
X159081000Y-96946000D02*
X159081000Y-100054000D01*
X159121000Y-97000000D02*
X159121000Y-100000000D01*
X159161000Y-97057000D02*
X159161000Y-99943000D01*
X159201000Y-97117000D02*
X159201000Y-99883000D01*
X159241000Y-97181000D02*
X159241000Y-99819000D01*
X159281000Y-97249000D02*
X159281000Y-99751000D01*
X159321000Y-97322000D02*
X159321000Y-99678000D01*
X159361000Y-97402000D02*
X159361000Y-99598000D01*
X159401000Y-97489000D02*
X159401000Y-99511000D01*
X159441000Y-97585000D02*
X159441000Y-99415000D01*
X159481000Y-97695000D02*
X159481000Y-99305000D01*
X159521000Y-97823000D02*
X159521000Y-99177000D01*
X159561000Y-97982000D02*
X159561000Y-99018000D01*
X159601000Y-98216000D02*
X159601000Y-98784000D01*
X159620000Y-98500000D02*
G75*
G02*
X154380000Y-98500000I-2620000J0D01*
G01*
X154380000Y-98500000D02*
G75*
G02*
X159620000Y-98500000I2620000J0D01*
G01*
%TO.C,R7*%
X121040000Y-94000000D02*
X121810000Y-94000000D01*
X121810000Y-92630000D02*
X121810000Y-95370000D01*
X121810000Y-95370000D02*
X128350000Y-95370000D01*
X128350000Y-92630000D02*
X121810000Y-92630000D01*
X128350000Y-95370000D02*
X128350000Y-92630000D01*
X129120000Y-94000000D02*
X128350000Y-94000000D01*
%TO.C,U2*%
X126590000Y-108040000D02*
X126590000Y-109690000D01*
X126590000Y-111690000D02*
X126590000Y-113340000D01*
X126590000Y-113340000D02*
X147030000Y-113340000D01*
X147030000Y-108040000D02*
X126590000Y-108040000D01*
X147030000Y-113340000D02*
X147030000Y-108040000D01*
X126590000Y-109690000D02*
G75*
G02*
X126590000Y-111690000I0J-1000000D01*
G01*
%TO.C,C9*%
X137695225Y-92525000D02*
X138195225Y-92525000D01*
X137945225Y-92275000D02*
X137945225Y-92775000D01*
X140500000Y-91420000D02*
X140500000Y-92960000D01*
X140500000Y-95040000D02*
X140500000Y-96580000D01*
X140540000Y-91420000D02*
X140540000Y-92960000D01*
X140540000Y-95040000D02*
X140540000Y-96580000D01*
X140580000Y-91421000D02*
X140580000Y-92960000D01*
X140580000Y-95040000D02*
X140580000Y-96579000D01*
X140620000Y-91422000D02*
X140620000Y-92960000D01*
X140620000Y-95040000D02*
X140620000Y-96578000D01*
X140660000Y-91424000D02*
X140660000Y-92960000D01*
X140660000Y-95040000D02*
X140660000Y-96576000D01*
X140700000Y-91427000D02*
X140700000Y-92960000D01*
X140700000Y-95040000D02*
X140700000Y-96573000D01*
X140740000Y-91431000D02*
X140740000Y-92960000D01*
X140740000Y-95040000D02*
X140740000Y-96569000D01*
X140780000Y-91435000D02*
X140780000Y-92960000D01*
X140780000Y-95040000D02*
X140780000Y-96565000D01*
X140820000Y-91439000D02*
X140820000Y-92960000D01*
X140820000Y-95040000D02*
X140820000Y-96561000D01*
X140860000Y-91444000D02*
X140860000Y-92960000D01*
X140860000Y-95040000D02*
X140860000Y-96556000D01*
X140900000Y-91450000D02*
X140900000Y-92960000D01*
X140900000Y-95040000D02*
X140900000Y-96550000D01*
X140940000Y-91457000D02*
X140940000Y-92960000D01*
X140940000Y-95040000D02*
X140940000Y-96543000D01*
X140980000Y-91464000D02*
X140980000Y-92960000D01*
X140980000Y-95040000D02*
X140980000Y-96536000D01*
X141020000Y-91472000D02*
X141020000Y-92960000D01*
X141020000Y-95040000D02*
X141020000Y-96528000D01*
X141060000Y-91480000D02*
X141060000Y-92960000D01*
X141060000Y-95040000D02*
X141060000Y-96520000D01*
X141100000Y-91489000D02*
X141100000Y-92960000D01*
X141100000Y-95040000D02*
X141100000Y-96511000D01*
X141140000Y-91499000D02*
X141140000Y-92960000D01*
X141140000Y-95040000D02*
X141140000Y-96501000D01*
X141180000Y-91509000D02*
X141180000Y-92960000D01*
X141180000Y-95040000D02*
X141180000Y-96491000D01*
X141221000Y-91520000D02*
X141221000Y-92960000D01*
X141221000Y-95040000D02*
X141221000Y-96480000D01*
X141261000Y-91532000D02*
X141261000Y-92960000D01*
X141261000Y-95040000D02*
X141261000Y-96468000D01*
X141301000Y-91545000D02*
X141301000Y-92960000D01*
X141301000Y-95040000D02*
X141301000Y-96455000D01*
X141341000Y-91558000D02*
X141341000Y-92960000D01*
X141341000Y-95040000D02*
X141341000Y-96442000D01*
X141381000Y-91572000D02*
X141381000Y-92960000D01*
X141381000Y-95040000D02*
X141381000Y-96428000D01*
X141421000Y-91586000D02*
X141421000Y-92960000D01*
X141421000Y-95040000D02*
X141421000Y-96414000D01*
X141461000Y-91602000D02*
X141461000Y-92960000D01*
X141461000Y-95040000D02*
X141461000Y-96398000D01*
X141501000Y-91618000D02*
X141501000Y-92960000D01*
X141501000Y-95040000D02*
X141501000Y-96382000D01*
X141541000Y-91635000D02*
X141541000Y-92960000D01*
X141541000Y-95040000D02*
X141541000Y-96365000D01*
X141581000Y-91652000D02*
X141581000Y-92960000D01*
X141581000Y-95040000D02*
X141581000Y-96348000D01*
X141621000Y-91671000D02*
X141621000Y-92960000D01*
X141621000Y-95040000D02*
X141621000Y-96329000D01*
X141661000Y-91690000D02*
X141661000Y-92960000D01*
X141661000Y-95040000D02*
X141661000Y-96310000D01*
X141701000Y-91710000D02*
X141701000Y-92960000D01*
X141701000Y-95040000D02*
X141701000Y-96290000D01*
X141741000Y-91732000D02*
X141741000Y-92960000D01*
X141741000Y-95040000D02*
X141741000Y-96268000D01*
X141781000Y-91753000D02*
X141781000Y-92960000D01*
X141781000Y-95040000D02*
X141781000Y-96247000D01*
X141821000Y-91776000D02*
X141821000Y-92960000D01*
X141821000Y-95040000D02*
X141821000Y-96224000D01*
X141861000Y-91800000D02*
X141861000Y-92960000D01*
X141861000Y-95040000D02*
X141861000Y-96200000D01*
X141901000Y-91825000D02*
X141901000Y-92960000D01*
X141901000Y-95040000D02*
X141901000Y-96175000D01*
X141941000Y-91851000D02*
X141941000Y-92960000D01*
X141941000Y-95040000D02*
X141941000Y-96149000D01*
X141981000Y-91878000D02*
X141981000Y-92960000D01*
X141981000Y-95040000D02*
X141981000Y-96122000D01*
X142021000Y-91905000D02*
X142021000Y-92960000D01*
X142021000Y-95040000D02*
X142021000Y-96095000D01*
X142061000Y-91935000D02*
X142061000Y-92960000D01*
X142061000Y-95040000D02*
X142061000Y-96065000D01*
X142101000Y-91965000D02*
X142101000Y-92960000D01*
X142101000Y-95040000D02*
X142101000Y-96035000D01*
X142141000Y-91996000D02*
X142141000Y-92960000D01*
X142141000Y-95040000D02*
X142141000Y-96004000D01*
X142181000Y-92029000D02*
X142181000Y-92960000D01*
X142181000Y-95040000D02*
X142181000Y-95971000D01*
X142221000Y-92063000D02*
X142221000Y-92960000D01*
X142221000Y-95040000D02*
X142221000Y-95937000D01*
X142261000Y-92099000D02*
X142261000Y-92960000D01*
X142261000Y-95040000D02*
X142261000Y-95901000D01*
X142301000Y-92136000D02*
X142301000Y-92960000D01*
X142301000Y-95040000D02*
X142301000Y-95864000D01*
X142341000Y-92174000D02*
X142341000Y-92960000D01*
X142341000Y-95040000D02*
X142341000Y-95826000D01*
X142381000Y-92215000D02*
X142381000Y-92960000D01*
X142381000Y-95040000D02*
X142381000Y-95785000D01*
X142421000Y-92257000D02*
X142421000Y-92960000D01*
X142421000Y-95040000D02*
X142421000Y-95743000D01*
X142461000Y-92301000D02*
X142461000Y-92960000D01*
X142461000Y-95040000D02*
X142461000Y-95699000D01*
X142501000Y-92347000D02*
X142501000Y-92960000D01*
X142501000Y-95040000D02*
X142501000Y-95653000D01*
X142541000Y-92395000D02*
X142541000Y-95605000D01*
X142581000Y-92446000D02*
X142581000Y-95554000D01*
X142621000Y-92500000D02*
X142621000Y-95500000D01*
X142661000Y-92557000D02*
X142661000Y-95443000D01*
X142701000Y-92617000D02*
X142701000Y-95383000D01*
X142741000Y-92681000D02*
X142741000Y-95319000D01*
X142781000Y-92749000D02*
X142781000Y-95251000D01*
X142821000Y-92822000D02*
X142821000Y-95178000D01*
X142861000Y-92902000D02*
X142861000Y-95098000D01*
X142901000Y-92989000D02*
X142901000Y-95011000D01*
X142941000Y-93085000D02*
X142941000Y-94915000D01*
X142981000Y-93195000D02*
X142981000Y-94805000D01*
X143021000Y-93323000D02*
X143021000Y-94677000D01*
X143061000Y-93482000D02*
X143061000Y-94518000D01*
X143101000Y-93716000D02*
X143101000Y-94284000D01*
X143120000Y-94000000D02*
G75*
G02*
X137880000Y-94000000I-2620000J0D01*
G01*
X137880000Y-94000000D02*
G75*
G02*
X143120000Y-94000000I2620000J0D01*
G01*
%TO.C,Q1*%
X107700000Y-120210000D02*
X111300000Y-120210000D01*
X107661522Y-120198478D02*
G75*
G02*
X109500000Y-115759999I1838478J1838478D01*
G01*
X109500000Y-115760000D02*
G75*
G02*
X111338478Y-120198478I0J-2600000D01*
G01*
%TO.C,J1*%
X102790000Y-103940000D02*
X102790000Y-113060000D01*
X105081000Y-107332000D02*
X104937000Y-107188000D01*
X105376000Y-107124000D02*
X105189000Y-106937000D01*
X107811000Y-110063000D02*
X107625000Y-109876000D01*
X108063000Y-109812000D02*
X107919000Y-109668000D01*
X110210000Y-103940000D02*
X102790000Y-103940000D01*
X110210000Y-103940000D02*
X110210000Y-113060000D01*
X110210000Y-113060000D02*
X102790000Y-113060000D01*
X108560000Y-108500000D02*
G75*
G02*
X104440000Y-108500000I-2060000J0D01*
G01*
X104440000Y-108500000D02*
G75*
G02*
X108560000Y-108500000I2060000J0D01*
G01*
%TO.C,RV2*%
X145985000Y-89504000D02*
X145985000Y-87540000D01*
X145985000Y-92280000D02*
X145985000Y-90494000D01*
X152935000Y-87540000D02*
X145985000Y-87540000D01*
X152935000Y-89504000D02*
X152935000Y-87540000D01*
X152935000Y-92280000D02*
X145985000Y-92280000D01*
X152935000Y-92280000D02*
X152935000Y-90494000D01*
%TO.C,U1*%
X123920000Y-131770000D02*
X123920000Y-127129000D01*
X127189000Y-131770000D02*
X127189000Y-130260000D01*
X130890000Y-131770000D02*
X130890000Y-130260000D01*
X134160000Y-127129000D02*
X123920000Y-127129000D01*
X134160000Y-130260000D02*
X123920000Y-130260000D01*
X134160000Y-131770000D02*
X123920000Y-131770000D01*
X134160000Y-131770000D02*
X134160000Y-127129000D01*
%TO.C,J4*%
X130440000Y-136290000D02*
X130440000Y-143710000D01*
X130440000Y-136290000D02*
X139560000Y-136290000D01*
X130440000Y-143710000D02*
X139560000Y-143710000D01*
X133624000Y-141124000D02*
X133437000Y-141311000D01*
X133832000Y-141419000D02*
X133688000Y-141563000D01*
X136312000Y-138437000D02*
X136168000Y-138581000D01*
X136563000Y-138689000D02*
X136376000Y-138875000D01*
X139560000Y-136290000D02*
X139560000Y-143710000D01*
X137060000Y-140000000D02*
G75*
G02*
X132940000Y-140000000I-2060000J0D01*
G01*
X132940000Y-140000000D02*
G75*
G02*
X137060000Y-140000000I2060000J0D01*
G01*
%TO.C,J2*%
X154290000Y-103940000D02*
X161710000Y-103940000D01*
X154290000Y-113060000D02*
X154290000Y-103940000D01*
X154290000Y-113060000D02*
X161710000Y-113060000D01*
X156437000Y-107188000D02*
X156581000Y-107332000D01*
X156689000Y-106937000D02*
X156875000Y-107124000D01*
X159124000Y-109876000D02*
X159311000Y-110063000D01*
X159419000Y-109668000D02*
X159563000Y-109812000D01*
X161710000Y-113060000D02*
X161710000Y-103940000D01*
X160060000Y-108500000D02*
G75*
G02*
X155940000Y-108500000I-2060000J0D01*
G01*
X155940000Y-108500000D02*
G75*
G02*
X160060000Y-108500000I2060000J0D01*
G01*
%TO.C,RV1*%
X143540000Y-137579000D02*
X143540000Y-135615000D01*
X143540000Y-140355000D02*
X143540000Y-138569000D01*
X150490000Y-135615000D02*
X143540000Y-135615000D01*
X150490000Y-137579000D02*
X150490000Y-135615000D01*
X150490000Y-140355000D02*
X143540000Y-140355000D01*
X150490000Y-140355000D02*
X150490000Y-138569000D01*
%TO.C,J3*%
X112440000Y-136290000D02*
X112440000Y-143710000D01*
X112440000Y-136290000D02*
X121560000Y-136290000D01*
X112440000Y-143710000D02*
X121560000Y-143710000D01*
X115624000Y-141124000D02*
X115437000Y-141311000D01*
X115832000Y-141419000D02*
X115688000Y-141563000D01*
X118312000Y-138437000D02*
X118168000Y-138581000D01*
X118563000Y-138689000D02*
X118376000Y-138875000D01*
X121560000Y-136290000D02*
X121560000Y-143710000D01*
X119060000Y-140000000D02*
G75*
G02*
X114940000Y-140000000I-2060000J0D01*
G01*
X114940000Y-140000000D02*
G75*
G02*
X119060000Y-140000000I2060000J0D01*
G01*
%TO.C,R1*%
X114130000Y-118650000D02*
X114130000Y-125190000D01*
X114130000Y-125190000D02*
X116870000Y-125190000D01*
X115500000Y-117880000D02*
X115500000Y-118650000D01*
X115500000Y-125960000D02*
X115500000Y-125190000D01*
X116870000Y-118650000D02*
X114130000Y-118650000D01*
X116870000Y-125190000D02*
X116870000Y-118650000D01*
%TO.C,C4*%
X149430000Y-118230000D02*
X149430000Y-122770000D01*
X149445000Y-118230000D02*
X149430000Y-118230000D01*
X149445000Y-122770000D02*
X149430000Y-122770000D01*
X151570000Y-118230000D02*
X151555000Y-118230000D01*
X151570000Y-118230000D02*
X151570000Y-122770000D01*
X151570000Y-122770000D02*
X151555000Y-122770000D01*
%TO.C,R4*%
X136630000Y-119730000D02*
X136630000Y-126270000D01*
X136630000Y-126270000D02*
X139370000Y-126270000D01*
X138000000Y-118960000D02*
X138000000Y-119730000D01*
X138000000Y-127040000D02*
X138000000Y-126270000D01*
X139370000Y-119730000D02*
X136630000Y-119730000D01*
X139370000Y-126270000D02*
X139370000Y-119730000D01*
%TO.C,C8*%
X131257600Y-88805000D02*
X131657600Y-88805000D01*
X131457600Y-88605000D02*
X131457600Y-89005000D01*
X133527401Y-87920000D02*
X133527401Y-89160000D01*
X133527401Y-90840000D02*
X133527401Y-92080000D01*
X133567401Y-87920000D02*
X133567401Y-89160000D01*
X133567401Y-90840000D02*
X133567401Y-92080000D01*
X133607401Y-87921000D02*
X133607401Y-89160000D01*
X133607401Y-90840000D02*
X133607401Y-92079000D01*
X133647401Y-87923000D02*
X133647401Y-89160000D01*
X133647401Y-90840000D02*
X133647401Y-92077000D01*
X133687401Y-87926000D02*
X133687401Y-89160000D01*
X133687401Y-90840000D02*
X133687401Y-92074000D01*
X133727401Y-87929000D02*
X133727401Y-89160000D01*
X133727401Y-90840000D02*
X133727401Y-92071000D01*
X133767401Y-87933000D02*
X133767401Y-89160000D01*
X133767401Y-90840000D02*
X133767401Y-92067000D01*
X133807401Y-87938000D02*
X133807401Y-89160000D01*
X133807401Y-90840000D02*
X133807401Y-92062000D01*
X133847401Y-87944000D02*
X133847401Y-89160000D01*
X133847401Y-90840000D02*
X133847401Y-92056000D01*
X133887401Y-87950000D02*
X133887401Y-89160000D01*
X133887401Y-90840000D02*
X133887401Y-92050000D01*
X133927401Y-87958000D02*
X133927401Y-89160000D01*
X133927401Y-90840000D02*
X133927401Y-92042000D01*
X133967401Y-87966000D02*
X133967401Y-89160000D01*
X133967401Y-90840000D02*
X133967401Y-92034000D01*
X134007401Y-87975000D02*
X134007401Y-89160000D01*
X134007401Y-90840000D02*
X134007401Y-92025000D01*
X134047401Y-87984000D02*
X134047401Y-89160000D01*
X134047401Y-90840000D02*
X134047401Y-92016000D01*
X134087401Y-87995000D02*
X134087401Y-89160000D01*
X134087401Y-90840000D02*
X134087401Y-92005000D01*
X134127401Y-88006000D02*
X134127401Y-89160000D01*
X134127401Y-90840000D02*
X134127401Y-91994000D01*
X134167401Y-88018000D02*
X134167401Y-89160000D01*
X134167401Y-90840000D02*
X134167401Y-91982000D01*
X134207401Y-88032000D02*
X134207401Y-89160000D01*
X134207401Y-90840000D02*
X134207401Y-91968000D01*
X134248401Y-88046000D02*
X134248401Y-89160000D01*
X134248401Y-90840000D02*
X134248401Y-91954000D01*
X134288401Y-88060000D02*
X134288401Y-89160000D01*
X134288401Y-90840000D02*
X134288401Y-91940000D01*
X134328401Y-88076000D02*
X134328401Y-89160000D01*
X134328401Y-90840000D02*
X134328401Y-91924000D01*
X134368401Y-88093000D02*
X134368401Y-89160000D01*
X134368401Y-90840000D02*
X134368401Y-91907000D01*
X134408401Y-88111000D02*
X134408401Y-89160000D01*
X134408401Y-90840000D02*
X134408401Y-91889000D01*
X134448401Y-88130000D02*
X134448401Y-89160000D01*
X134448401Y-90840000D02*
X134448401Y-91870000D01*
X134488401Y-88149000D02*
X134488401Y-89160000D01*
X134488401Y-90840000D02*
X134488401Y-91851000D01*
X134528401Y-88170000D02*
X134528401Y-89160000D01*
X134528401Y-90840000D02*
X134528401Y-91830000D01*
X134568401Y-88192000D02*
X134568401Y-89160000D01*
X134568401Y-90840000D02*
X134568401Y-91808000D01*
X134608401Y-88215000D02*
X134608401Y-89160000D01*
X134608401Y-90840000D02*
X134608401Y-91785000D01*
X134648401Y-88240000D02*
X134648401Y-89160000D01*
X134648401Y-90840000D02*
X134648401Y-91760000D01*
X134688401Y-88265000D02*
X134688401Y-89160000D01*
X134688401Y-90840000D02*
X134688401Y-91735000D01*
X134728401Y-88292000D02*
X134728401Y-89160000D01*
X134728401Y-90840000D02*
X134728401Y-91708000D01*
X134768401Y-88320000D02*
X134768401Y-89160000D01*
X134768401Y-90840000D02*
X134768401Y-91680000D01*
X134808401Y-88350000D02*
X134808401Y-89160000D01*
X134808401Y-90840000D02*
X134808401Y-91650000D01*
X134848401Y-88381000D02*
X134848401Y-89160000D01*
X134848401Y-90840000D02*
X134848401Y-91619000D01*
X134888401Y-88413000D02*
X134888401Y-89160000D01*
X134888401Y-90840000D02*
X134888401Y-91587000D01*
X134928401Y-88448000D02*
X134928401Y-89160000D01*
X134928401Y-90840000D02*
X134928401Y-91552000D01*
X134968401Y-88484000D02*
X134968401Y-89160000D01*
X134968401Y-90840000D02*
X134968401Y-91516000D01*
X135008401Y-88522000D02*
X135008401Y-89160000D01*
X135008401Y-90840000D02*
X135008401Y-91478000D01*
X135048401Y-88562000D02*
X135048401Y-89160000D01*
X135048401Y-90840000D02*
X135048401Y-91438000D01*
X135088401Y-88604000D02*
X135088401Y-89160000D01*
X135088401Y-90840000D02*
X135088401Y-91396000D01*
X135128401Y-88649000D02*
X135128401Y-91351000D01*
X135168401Y-88696000D02*
X135168401Y-91304000D01*
X135208401Y-88746000D02*
X135208401Y-91254000D01*
X135248401Y-88800000D02*
X135248401Y-91200000D01*
X135288401Y-88858000D02*
X135288401Y-91142000D01*
X135328401Y-88920000D02*
X135328401Y-91080000D01*
X135368401Y-88987000D02*
X135368401Y-91013000D01*
X135408401Y-89060000D02*
X135408401Y-90940000D01*
X135448401Y-89141000D02*
X135448401Y-90859000D01*
X135488401Y-89232000D02*
X135488401Y-90768000D01*
X135528401Y-89336000D02*
X135528401Y-90664000D01*
X135568401Y-89463000D02*
X135568401Y-90537000D01*
X135608401Y-89630000D02*
X135608401Y-90370000D01*
X135647401Y-90000000D02*
G75*
G02*
X131407401Y-90000000I-2120000J0D01*
G01*
X131407401Y-90000000D02*
G75*
G02*
X135647401Y-90000000I2120000J0D01*
G01*
%TO.C,C5*%
X146430000Y-97730000D02*
X146430000Y-102270000D01*
X146445000Y-97730000D02*
X146430000Y-97730000D01*
X146445000Y-102270000D02*
X146430000Y-102270000D01*
X148570000Y-97730000D02*
X148555000Y-97730000D01*
X148570000Y-97730000D02*
X148570000Y-102270000D01*
X148570000Y-102270000D02*
X148555000Y-102270000D01*
%TO.C,C3*%
X143430000Y-118230000D02*
X143430000Y-122770000D01*
X143445000Y-118230000D02*
X143430000Y-118230000D01*
X143445000Y-122770000D02*
X143430000Y-122770000D01*
X145570000Y-118230000D02*
X145555000Y-118230000D01*
X145570000Y-118230000D02*
X145570000Y-122770000D01*
X145570000Y-122770000D02*
X145555000Y-122770000D01*
%TO.C,R3*%
X120130000Y-117230000D02*
X120130000Y-123770000D01*
X120130000Y-123770000D02*
X122870000Y-123770000D01*
X121500000Y-116460000D02*
X121500000Y-117230000D01*
X121500000Y-124540000D02*
X121500000Y-123770000D01*
X122870000Y-117230000D02*
X120130000Y-117230000D01*
X122870000Y-123770000D02*
X122870000Y-117230000D01*
%TO.C,C2*%
X127945225Y-119025000D02*
X128445225Y-119025000D01*
X128195225Y-118775000D02*
X128195225Y-119275000D01*
X130750000Y-117920000D02*
X130750000Y-123080000D01*
X130790000Y-117920000D02*
X130790000Y-123080000D01*
X130830000Y-117921000D02*
X130830000Y-123079000D01*
X130870000Y-117922000D02*
X130870000Y-123078000D01*
X130910000Y-117924000D02*
X130910000Y-123076000D01*
X130950000Y-117927000D02*
X130950000Y-123073000D01*
X130990000Y-117931000D02*
X130990000Y-119460000D01*
X130990000Y-121540000D02*
X130990000Y-123069000D01*
X131030000Y-117935000D02*
X131030000Y-119460000D01*
X131030000Y-121540000D02*
X131030000Y-123065000D01*
X131070000Y-117939000D02*
X131070000Y-119460000D01*
X131070000Y-121540000D02*
X131070000Y-123061000D01*
X131110000Y-117944000D02*
X131110000Y-119460000D01*
X131110000Y-121540000D02*
X131110000Y-123056000D01*
X131150000Y-117950000D02*
X131150000Y-119460000D01*
X131150000Y-121540000D02*
X131150000Y-123050000D01*
X131190000Y-117957000D02*
X131190000Y-119460000D01*
X131190000Y-121540000D02*
X131190000Y-123043000D01*
X131230000Y-117964000D02*
X131230000Y-119460000D01*
X131230000Y-121540000D02*
X131230000Y-123036000D01*
X131270000Y-117972000D02*
X131270000Y-119460000D01*
X131270000Y-121540000D02*
X131270000Y-123028000D01*
X131310000Y-117980000D02*
X131310000Y-119460000D01*
X131310000Y-121540000D02*
X131310000Y-123020000D01*
X131350000Y-117989000D02*
X131350000Y-119460000D01*
X131350000Y-121540000D02*
X131350000Y-123011000D01*
X131390000Y-117999000D02*
X131390000Y-119460000D01*
X131390000Y-121540000D02*
X131390000Y-123001000D01*
X131430000Y-118009000D02*
X131430000Y-119460000D01*
X131430000Y-121540000D02*
X131430000Y-122991000D01*
X131471000Y-118020000D02*
X131471000Y-119460000D01*
X131471000Y-121540000D02*
X131471000Y-122980000D01*
X131511000Y-118032000D02*
X131511000Y-119460000D01*
X131511000Y-121540000D02*
X131511000Y-122968000D01*
X131551000Y-118045000D02*
X131551000Y-119460000D01*
X131551000Y-121540000D02*
X131551000Y-122955000D01*
X131591000Y-118058000D02*
X131591000Y-119460000D01*
X131591000Y-121540000D02*
X131591000Y-122942000D01*
X131631000Y-118072000D02*
X131631000Y-119460000D01*
X131631000Y-121540000D02*
X131631000Y-122928000D01*
X131671000Y-118086000D02*
X131671000Y-119460000D01*
X131671000Y-121540000D02*
X131671000Y-122914000D01*
X131711000Y-118102000D02*
X131711000Y-119460000D01*
X131711000Y-121540000D02*
X131711000Y-122898000D01*
X131751000Y-118118000D02*
X131751000Y-119460000D01*
X131751000Y-121540000D02*
X131751000Y-122882000D01*
X131791000Y-118135000D02*
X131791000Y-119460000D01*
X131791000Y-121540000D02*
X131791000Y-122865000D01*
X131831000Y-118152000D02*
X131831000Y-119460000D01*
X131831000Y-121540000D02*
X131831000Y-122848000D01*
X131871000Y-118171000D02*
X131871000Y-119460000D01*
X131871000Y-121540000D02*
X131871000Y-122829000D01*
X131911000Y-118190000D02*
X131911000Y-119460000D01*
X131911000Y-121540000D02*
X131911000Y-122810000D01*
X131951000Y-118210000D02*
X131951000Y-119460000D01*
X131951000Y-121540000D02*
X131951000Y-122790000D01*
X131991000Y-118232000D02*
X131991000Y-119460000D01*
X131991000Y-121540000D02*
X131991000Y-122768000D01*
X132031000Y-118253000D02*
X132031000Y-119460000D01*
X132031000Y-121540000D02*
X132031000Y-122747000D01*
X132071000Y-118276000D02*
X132071000Y-119460000D01*
X132071000Y-121540000D02*
X132071000Y-122724000D01*
X132111000Y-118300000D02*
X132111000Y-119460000D01*
X132111000Y-121540000D02*
X132111000Y-122700000D01*
X132151000Y-118325000D02*
X132151000Y-119460000D01*
X132151000Y-121540000D02*
X132151000Y-122675000D01*
X132191000Y-118351000D02*
X132191000Y-119460000D01*
X132191000Y-121540000D02*
X132191000Y-122649000D01*
X132231000Y-118378000D02*
X132231000Y-119460000D01*
X132231000Y-121540000D02*
X132231000Y-122622000D01*
X132271000Y-118405000D02*
X132271000Y-119460000D01*
X132271000Y-121540000D02*
X132271000Y-122595000D01*
X132311000Y-118435000D02*
X132311000Y-119460000D01*
X132311000Y-121540000D02*
X132311000Y-122565000D01*
X132351000Y-118465000D02*
X132351000Y-119460000D01*
X132351000Y-121540000D02*
X132351000Y-122535000D01*
X132391000Y-118496000D02*
X132391000Y-119460000D01*
X132391000Y-121540000D02*
X132391000Y-122504000D01*
X132431000Y-118529000D02*
X132431000Y-119460000D01*
X132431000Y-121540000D02*
X132431000Y-122471000D01*
X132471000Y-118563000D02*
X132471000Y-119460000D01*
X132471000Y-121540000D02*
X132471000Y-122437000D01*
X132511000Y-118599000D02*
X132511000Y-119460000D01*
X132511000Y-121540000D02*
X132511000Y-122401000D01*
X132551000Y-118636000D02*
X132551000Y-119460000D01*
X132551000Y-121540000D02*
X132551000Y-122364000D01*
X132591000Y-118674000D02*
X132591000Y-119460000D01*
X132591000Y-121540000D02*
X132591000Y-122326000D01*
X132631000Y-118715000D02*
X132631000Y-119460000D01*
X132631000Y-121540000D02*
X132631000Y-122285000D01*
X132671000Y-118757000D02*
X132671000Y-119460000D01*
X132671000Y-121540000D02*
X132671000Y-122243000D01*
X132711000Y-118801000D02*
X132711000Y-119460000D01*
X132711000Y-121540000D02*
X132711000Y-122199000D01*
X132751000Y-118847000D02*
X132751000Y-119460000D01*
X132751000Y-121540000D02*
X132751000Y-122153000D01*
X132791000Y-118895000D02*
X132791000Y-119460000D01*
X132791000Y-121540000D02*
X132791000Y-122105000D01*
X132831000Y-118946000D02*
X132831000Y-119460000D01*
X132831000Y-121540000D02*
X132831000Y-122054000D01*
X132871000Y-119000000D02*
X132871000Y-119460000D01*
X132871000Y-121540000D02*
X132871000Y-122000000D01*
X132911000Y-119057000D02*
X132911000Y-119460000D01*
X132911000Y-121540000D02*
X132911000Y-121943000D01*
X132951000Y-119117000D02*
X132951000Y-119460000D01*
X132951000Y-121540000D02*
X132951000Y-121883000D01*
X132991000Y-119181000D02*
X132991000Y-119460000D01*
X132991000Y-121540000D02*
X132991000Y-121819000D01*
X133031000Y-119249000D02*
X133031000Y-119460000D01*
X133031000Y-121540000D02*
X133031000Y-121751000D01*
X133071000Y-119322000D02*
X133071000Y-121678000D01*
X133111000Y-119402000D02*
X133111000Y-121598000D01*
X133151000Y-119489000D02*
X133151000Y-121511000D01*
X133191000Y-119585000D02*
X133191000Y-121415000D01*
X133231000Y-119695000D02*
X133231000Y-121305000D01*
X133271000Y-119823000D02*
X133271000Y-121177000D01*
X133311000Y-119982000D02*
X133311000Y-121018000D01*
X133351000Y-120216000D02*
X133351000Y-120784000D01*
X133370000Y-120500000D02*
G75*
G02*
X128130000Y-120500000I-2620000J0D01*
G01*
X128130000Y-120500000D02*
G75*
G02*
X133370000Y-120500000I2620000J0D01*
G01*
%TO.C,C1*%
X117420000Y-107415113D02*
X118960000Y-107415113D01*
X117420000Y-107455113D02*
X118960000Y-107455113D01*
X117421000Y-107375113D02*
X118960000Y-107375113D01*
X117422000Y-107335113D02*
X118960000Y-107335113D01*
X117424000Y-107295113D02*
X118960000Y-107295113D01*
X117427000Y-107255113D02*
X118960000Y-107255113D01*
X117431000Y-107215113D02*
X118960000Y-107215113D01*
X117435000Y-107175113D02*
X118960000Y-107175113D01*
X117439000Y-107135113D02*
X118960000Y-107135113D01*
X117444000Y-107095113D02*
X118960000Y-107095113D01*
X117450000Y-107055113D02*
X118960000Y-107055113D01*
X117457000Y-107015113D02*
X118960000Y-107015113D01*
X117464000Y-106975113D02*
X118960000Y-106975113D01*
X117472000Y-106935113D02*
X118960000Y-106935113D01*
X117480000Y-106895113D02*
X118960000Y-106895113D01*
X117489000Y-106855113D02*
X118960000Y-106855113D01*
X117499000Y-106815113D02*
X118960000Y-106815113D01*
X117509000Y-106775113D02*
X118960000Y-106775113D01*
X117520000Y-106734113D02*
X118960000Y-106734113D01*
X117532000Y-106694113D02*
X118960000Y-106694113D01*
X117545000Y-106654113D02*
X118960000Y-106654113D01*
X117558000Y-106614113D02*
X118960000Y-106614113D01*
X117572000Y-106574113D02*
X118960000Y-106574113D01*
X117586000Y-106534113D02*
X118960000Y-106534113D01*
X117602000Y-106494113D02*
X118960000Y-106494113D01*
X117618000Y-106454113D02*
X118960000Y-106454113D01*
X117635000Y-106414113D02*
X118960000Y-106414113D01*
X117652000Y-106374113D02*
X118960000Y-106374113D01*
X117671000Y-106334113D02*
X118960000Y-106334113D01*
X117690000Y-106294113D02*
X118960000Y-106294113D01*
X117710000Y-106254113D02*
X118960000Y-106254113D01*
X117732000Y-106214113D02*
X118960000Y-106214113D01*
X117753000Y-106174113D02*
X118960000Y-106174113D01*
X117776000Y-106134113D02*
X118960000Y-106134113D01*
X117800000Y-106094113D02*
X118960000Y-106094113D01*
X117825000Y-106054113D02*
X118960000Y-106054113D01*
X117851000Y-106014113D02*
X118960000Y-106014113D01*
X117878000Y-105974113D02*
X118960000Y-105974113D01*
X117905000Y-105934113D02*
X118960000Y-105934113D01*
X117935000Y-105894113D02*
X118960000Y-105894113D01*
X117965000Y-105854113D02*
X118960000Y-105854113D01*
X117996000Y-105814113D02*
X118960000Y-105814113D01*
X118029000Y-105774113D02*
X118960000Y-105774113D01*
X118063000Y-105734113D02*
X118960000Y-105734113D01*
X118099000Y-105694113D02*
X118960000Y-105694113D01*
X118136000Y-105654113D02*
X118960000Y-105654113D01*
X118174000Y-105614113D02*
X118960000Y-105614113D01*
X118215000Y-105574113D02*
X118960000Y-105574113D01*
X118257000Y-105534113D02*
X118960000Y-105534113D01*
X118275000Y-110009888D02*
X118775000Y-110009888D01*
X118301000Y-105494113D02*
X118960000Y-105494113D01*
X118347000Y-105454113D02*
X118960000Y-105454113D01*
X118395000Y-105414113D02*
X121605000Y-105414113D01*
X118446000Y-105374113D02*
X121554000Y-105374113D01*
X118500000Y-105334113D02*
X121500000Y-105334113D01*
X118525000Y-110259888D02*
X118525000Y-109759888D01*
X118557000Y-105294113D02*
X121443000Y-105294113D01*
X118617000Y-105254113D02*
X121383000Y-105254113D01*
X118681000Y-105214113D02*
X121319000Y-105214113D01*
X118749000Y-105174113D02*
X121251000Y-105174113D01*
X118822000Y-105134113D02*
X121178000Y-105134113D01*
X118902000Y-105094113D02*
X121098000Y-105094113D01*
X118989000Y-105054113D02*
X121011000Y-105054113D01*
X119085000Y-105014113D02*
X120915000Y-105014113D01*
X119195000Y-104974113D02*
X120805000Y-104974113D01*
X119323000Y-104934113D02*
X120677000Y-104934113D01*
X119482000Y-104894113D02*
X120518000Y-104894113D01*
X119716000Y-104854113D02*
X120284000Y-104854113D01*
X121040000Y-105454113D02*
X121653000Y-105454113D01*
X121040000Y-105494113D02*
X121699000Y-105494113D01*
X121040000Y-105534113D02*
X121743000Y-105534113D01*
X121040000Y-105574113D02*
X121785000Y-105574113D01*
X121040000Y-105614113D02*
X121826000Y-105614113D01*
X121040000Y-105654113D02*
X121864000Y-105654113D01*
X121040000Y-105694113D02*
X121901000Y-105694113D01*
X121040000Y-105734113D02*
X121937000Y-105734113D01*
X121040000Y-105774113D02*
X121971000Y-105774113D01*
X121040000Y-105814113D02*
X122004000Y-105814113D01*
X121040000Y-105854113D02*
X122035000Y-105854113D01*
X121040000Y-105894113D02*
X122065000Y-105894113D01*
X121040000Y-105934113D02*
X122095000Y-105934113D01*
X121040000Y-105974113D02*
X122122000Y-105974113D01*
X121040000Y-106014113D02*
X122149000Y-106014113D01*
X121040000Y-106054113D02*
X122175000Y-106054113D01*
X121040000Y-106094113D02*
X122200000Y-106094113D01*
X121040000Y-106134113D02*
X122224000Y-106134113D01*
X121040000Y-106174113D02*
X122247000Y-106174113D01*
X121040000Y-106214113D02*
X122268000Y-106214113D01*
X121040000Y-106254113D02*
X122290000Y-106254113D01*
X121040000Y-106294113D02*
X122310000Y-106294113D01*
X121040000Y-106334113D02*
X122329000Y-106334113D01*
X121040000Y-106374113D02*
X122348000Y-106374113D01*
X121040000Y-106414113D02*
X122365000Y-106414113D01*
X121040000Y-106454113D02*
X122382000Y-106454113D01*
X121040000Y-106494113D02*
X122398000Y-106494113D01*
X121040000Y-106534113D02*
X122414000Y-106534113D01*
X121040000Y-106574113D02*
X122428000Y-106574113D01*
X121040000Y-106614113D02*
X122442000Y-106614113D01*
X121040000Y-106654113D02*
X122455000Y-106654113D01*
X121040000Y-106694113D02*
X122468000Y-106694113D01*
X121040000Y-106734113D02*
X122480000Y-106734113D01*
X121040000Y-106775113D02*
X122491000Y-106775113D01*
X121040000Y-106815113D02*
X122501000Y-106815113D01*
X121040000Y-106855113D02*
X122511000Y-106855113D01*
X121040000Y-106895113D02*
X122520000Y-106895113D01*
X121040000Y-106935113D02*
X122528000Y-106935113D01*
X121040000Y-106975113D02*
X122536000Y-106975113D01*
X121040000Y-107015113D02*
X122543000Y-107015113D01*
X121040000Y-107055113D02*
X122550000Y-107055113D01*
X121040000Y-107095113D02*
X122556000Y-107095113D01*
X121040000Y-107135113D02*
X122561000Y-107135113D01*
X121040000Y-107175113D02*
X122565000Y-107175113D01*
X121040000Y-107215113D02*
X122569000Y-107215113D01*
X121040000Y-107255113D02*
X122573000Y-107255113D01*
X121040000Y-107295113D02*
X122576000Y-107295113D01*
X121040000Y-107335113D02*
X122578000Y-107335113D01*
X121040000Y-107375113D02*
X122579000Y-107375113D01*
X121040000Y-107415113D02*
X122580000Y-107415113D01*
X121040000Y-107455113D02*
X122580000Y-107455113D01*
X122620000Y-107455113D02*
G75*
G02*
X117380000Y-107455113I-2620000J0D01*
G01*
X117380000Y-107455113D02*
G75*
G02*
X122620000Y-107455113I2620000J0D01*
G01*
%TO.C,R2*%
X102130000Y-118730000D02*
X102130000Y-125270000D01*
X102130000Y-125270000D02*
X104870000Y-125270000D01*
X103500000Y-117960000D02*
X103500000Y-118730000D01*
X103500000Y-126040000D02*
X103500000Y-125270000D01*
X104870000Y-118730000D02*
X102130000Y-118730000D01*
X104870000Y-125270000D02*
X104870000Y-118730000D01*
%TD*%
M02*
