%TF.GenerationSoftware,KiCad,Pcbnew,8.0.5*%
%TF.CreationDate,2024-10-18T10:56:01-05:00*%
%TF.ProjectId,Block-PT2399,426c6f63-6b2d-4505-9432-3339392e6b69,rev?*%
%TF.SameCoordinates,Original*%
%TF.FileFunction,Soldermask,Top*%
%TF.FilePolarity,Negative*%
%FSLAX46Y46*%
G04 Gerber Fmt 4.6, Leading zero omitted, Abs format (unit mm)*
G04 Created by KiCad (PCBNEW 8.0.5) date 2024-10-18 10:56:01*
%MOMM*%
%LPD*%
G01*
G04 APERTURE LIST*
%ADD10O,1.400000X1.400000*%
%ADD11C,1.400000*%
%ADD12R,1.500000X1.050000*%
%ADD13O,1.500000X1.050000*%
%ADD14R,1.600000X1.600000*%
%ADD15O,1.600000X1.600000*%
%ADD16R,2.200000X2.200000*%
%ADD17O,2.200000X2.200000*%
%ADD18R,1.200000X1.200000*%
%ADD19C,1.200000*%
%ADD20C,1.600000*%
%ADD21C,2.200000*%
%ADD22R,1.500000X1.500000*%
%ADD23C,1.500000*%
%ADD24C,3.000000*%
%ADD25C,1.440000*%
%ADD26R,1.905000X2.000000*%
%ADD27O,1.905000X2.000000*%
G04 APERTURE END LIST*
D10*
%TO.C,R4*%
X148000000Y-137500000D03*
D11*
X148000000Y-132420000D03*
%TD*%
D12*
%TO.C,Q2*%
X150640000Y-123230000D03*
D13*
X150640000Y-124500000D03*
X150640000Y-125770000D03*
%TD*%
D14*
%TO.C,D2*%
X154000000Y-137310000D03*
D15*
X154000000Y-129690000D03*
%TD*%
D16*
%TO.C,D1*%
X124500000Y-136920000D03*
D17*
X124500000Y-147080000D03*
%TD*%
D18*
%TO.C,C12*%
X144500000Y-130000000D03*
D19*
X144500000Y-128000000D03*
%TD*%
D20*
%TO.C,C11*%
X131500000Y-137500000D03*
D14*
X131500000Y-135500000D03*
%TD*%
D20*
%TO.C,C10*%
X125000000Y-124000000D03*
X127500000Y-124000000D03*
%TD*%
%TO.C,C6*%
X140500000Y-102000000D03*
X135500000Y-102000000D03*
%TD*%
D21*
%TO.C,REF\u002A\u002A*%
X105000000Y-90000000D03*
%TD*%
%TO.C,REF\u002A\u002A*%
X160000000Y-90000000D03*
%TD*%
D20*
%TO.C,R6*%
X127660000Y-103000000D03*
D15*
X117500000Y-103000000D03*
%TD*%
D14*
%TO.C,C7*%
X153500000Y-95500000D03*
D20*
X155500000Y-95500000D03*
%TD*%
%TO.C,R7*%
X113500000Y-103000000D03*
D15*
X113500000Y-92840000D03*
%TD*%
D14*
%TO.C,U2*%
X127920000Y-114500000D03*
D15*
X130460000Y-114500000D03*
X133000000Y-114500000D03*
X135540000Y-114500000D03*
X138080000Y-114500000D03*
X140620000Y-114500000D03*
X143160000Y-114500000D03*
X145700000Y-114500000D03*
X145700000Y-106880000D03*
X143160000Y-106880000D03*
X140620000Y-106880000D03*
X138080000Y-106880000D03*
X135540000Y-106880000D03*
X133000000Y-106880000D03*
X130460000Y-106880000D03*
X127920000Y-106880000D03*
%TD*%
D14*
%TO.C,C9*%
X119044888Y-94500000D03*
D20*
X121044888Y-94500000D03*
%TD*%
D22*
%TO.C,Q1*%
X107000000Y-118500000D03*
D23*
X109540000Y-118500000D03*
X112080000Y-118500000D03*
%TD*%
D24*
%TO.C,J1*%
X106500000Y-108500000D03*
%TD*%
D25*
%TO.C,RV2*%
X130525000Y-94500000D03*
X127985000Y-94500000D03*
X125445000Y-94500000D03*
%TD*%
D26*
%TO.C,U1*%
X131580000Y-128500000D03*
D27*
X129040000Y-128500000D03*
X126500000Y-128500000D03*
%TD*%
D24*
%TO.C,J4*%
X134500000Y-144500000D03*
%TD*%
%TO.C,J2*%
X160000000Y-104000000D03*
%TD*%
D21*
%TO.C,REF\u002A\u002A*%
X160000000Y-145000000D03*
%TD*%
D25*
%TO.C,RV1*%
X138000000Y-120920000D03*
X138000000Y-123460000D03*
X138000000Y-126000000D03*
%TD*%
D24*
%TO.C,J3*%
X117000000Y-144500000D03*
%TD*%
D20*
%TO.C,R1*%
X115500000Y-127080000D03*
D15*
X115500000Y-116920000D03*
%TD*%
D20*
%TO.C,C4*%
X149000000Y-112500000D03*
X154000000Y-112500000D03*
%TD*%
D18*
%TO.C,C8*%
X135500000Y-96722600D03*
D19*
X135500000Y-95222600D03*
%TD*%
D20*
%TO.C,C5*%
X143500000Y-102000000D03*
X148500000Y-102000000D03*
%TD*%
%TO.C,C3*%
X149000000Y-117000000D03*
X154000000Y-117000000D03*
%TD*%
%TO.C,R3*%
X121500000Y-115420000D03*
D15*
X121500000Y-125580000D03*
%TD*%
D14*
%TO.C,C2*%
X129500000Y-120500000D03*
D20*
X132000000Y-120500000D03*
%TD*%
D14*
%TO.C,C1*%
X120000000Y-110455113D03*
D20*
X120000000Y-108455113D03*
%TD*%
D21*
%TO.C,REF\u002A\u002A*%
X105000000Y-145000000D03*
%TD*%
D20*
%TO.C,R2*%
X103500000Y-116920000D03*
D15*
X103500000Y-127080000D03*
%TD*%
M02*
