%TF.GenerationSoftware,KiCad,Pcbnew,8.0.5*%
%TF.CreationDate,2024-10-10T16:22:24-05:00*%
%TF.ProjectId,Block-PT2399,426c6f63-6b2d-4505-9432-3339392e6b69,rev?*%
%TF.SameCoordinates,Original*%
%TF.FileFunction,Copper,L1,Top*%
%TF.FilePolarity,Positive*%
%FSLAX46Y46*%
G04 Gerber Fmt 4.6, Leading zero omitted, Abs format (unit mm)*
G04 Created by KiCad (PCBNEW 8.0.5) date 2024-10-10 16:22:24*
%MOMM*%
%LPD*%
G01*
G04 APERTURE LIST*
%TA.AperFunction,ComponentPad*%
%ADD10C,1.600000*%
%TD*%
%TA.AperFunction,ComponentPad*%
%ADD11O,1.600000X1.600000*%
%TD*%
%TA.AperFunction,ComponentPad*%
%ADD12R,1.600000X1.600000*%
%TD*%
%TA.AperFunction,ComponentPad*%
%ADD13R,1.300000X1.300000*%
%TD*%
%TA.AperFunction,ComponentPad*%
%ADD14C,1.300000*%
%TD*%
%TA.AperFunction,ComponentPad*%
%ADD15C,3.000000*%
%TD*%
%TA.AperFunction,ComponentPad*%
%ADD16C,1.440000*%
%TD*%
%TA.AperFunction,ComponentPad*%
%ADD17R,1.905000X2.000000*%
%TD*%
%TA.AperFunction,ComponentPad*%
%ADD18O,1.905000X2.000000*%
%TD*%
%TA.AperFunction,ComponentPad*%
%ADD19R,1.200000X1.200000*%
%TD*%
%TA.AperFunction,ComponentPad*%
%ADD20C,1.200000*%
%TD*%
%TA.AperFunction,Conductor*%
%ADD21C,0.700000*%
%TD*%
G04 APERTURE END LIST*
D10*
%TO.P,C6,1*%
%TO.N,Net-(U2-OP2-IN)*%
X141000000Y-102500000D03*
%TO.P,C6,2*%
%TO.N,Net-(U2-OP2-OUT)*%
X136000000Y-102500000D03*
%TD*%
%TO.P,R6,1*%
%TO.N,Net-(U2-LPF1-OUT)*%
X130080000Y-101000000D03*
D11*
%TO.P,R6,2*%
%TO.N,Net-(U2-LPF1-IN)*%
X119920000Y-101000000D03*
%TD*%
D12*
%TO.P,C7,1*%
%TO.N,Net-(U2-LPF1-OUT)*%
X156000000Y-98500000D03*
D10*
%TO.P,C7,2*%
%TO.N,Net-(J2-Pin_1)*%
X158000000Y-98500000D03*
%TD*%
%TO.P,R7,1*%
%TO.N,Net-(U2-LPF1-IN)*%
X120000000Y-94000000D03*
D11*
%TO.P,R7,2*%
%TO.N,Net-(C9-Pad1)*%
X130160000Y-94000000D03*
%TD*%
D12*
%TO.P,U2,1,VCC*%
%TO.N,Net-(U1-VO)*%
X127920000Y-114500000D03*
D11*
%TO.P,U2,2,REF*%
%TO.N,unconnected-(U2-REF-Pad2)*%
X130460000Y-114500000D03*
%TO.P,U2,3,AGND*%
%TO.N,GND*%
X133000000Y-114500000D03*
%TO.P,U2,4,DGND*%
%TO.N,Net-(U2-DGND)*%
X135540000Y-114500000D03*
%TO.P,U2,5,CLK_O*%
%TO.N,unconnected-(U2-CLK_O-Pad5)*%
X138080000Y-114500000D03*
%TO.P,U2,6,VCO*%
%TO.N,Net-(U2-VCO)*%
X140620000Y-114500000D03*
%TO.P,U2,7,CC1*%
%TO.N,Net-(U2-CC1)*%
X143160000Y-114500000D03*
%TO.P,U2,8,CC0*%
%TO.N,Net-(U2-CC0)*%
X145700000Y-114500000D03*
%TO.P,U2,9,OP1-OUT*%
%TO.N,Net-(U2-OP1-OUT)*%
X145700000Y-106880000D03*
%TO.P,U2,10,OP1-IN*%
%TO.N,Net-(U2-OP1-IN)*%
X143160000Y-106880000D03*
%TO.P,U2,11,OP2-IN*%
%TO.N,Net-(U2-OP2-IN)*%
X140620000Y-106880000D03*
%TO.P,U2,12,OP2-OUT*%
%TO.N,Net-(U2-OP2-OUT)*%
X138080000Y-106880000D03*
%TO.P,U2,13,LPF2-IN*%
%TO.N,unconnected-(U2-LPF2-IN-Pad13)*%
X135540000Y-106880000D03*
%TO.P,U2,14,LPF2-OUT*%
%TO.N,unconnected-(U2-LPF2-OUT-Pad14)*%
X133000000Y-106880000D03*
%TO.P,U2,15,LPF1-OUT*%
%TO.N,Net-(U2-LPF1-OUT)*%
X130460000Y-106880000D03*
%TO.P,U2,16,LPF1-IN*%
%TO.N,Net-(U2-LPF1-IN)*%
X127920000Y-106880000D03*
%TD*%
D12*
%TO.P,C9,1*%
%TO.N,Net-(C9-Pad1)*%
X139500000Y-94000000D03*
D10*
%TO.P,C9,2*%
%TO.N,Net-(C9-Pad2)*%
X141500000Y-94000000D03*
%TD*%
D13*
%TO.P,Q1,1,D*%
%TO.N,+9V*%
X108230000Y-118360000D03*
D14*
%TO.P,Q1,2,G*%
%TO.N,Net-(J1-Pin_1)*%
X109500000Y-117090000D03*
%TO.P,Q1,3,S*%
%TO.N,Net-(Q1-S)*%
X110770000Y-118360000D03*
%TD*%
D15*
%TO.P,J1,1,Pin_1*%
%TO.N,Net-(J1-Pin_1)*%
X106500000Y-108500000D03*
%TD*%
D16*
%TO.P,RV2,1,1*%
%TO.N,Net-(C8-Pad2)*%
X146920000Y-90000000D03*
%TO.P,RV2,2,2*%
%TO.N,Net-(C9-Pad2)*%
X149460000Y-90000000D03*
%TO.P,RV2,3,3*%
%TO.N,GND*%
X152000000Y-90000000D03*
%TD*%
D17*
%TO.P,U1,1,VI*%
%TO.N,+9V*%
X131580000Y-128500000D03*
D18*
%TO.P,U1,2,GND*%
%TO.N,GND*%
X129040000Y-128500000D03*
%TO.P,U1,3,VO*%
%TO.N,Net-(U1-VO)*%
X126500000Y-128500000D03*
%TD*%
D15*
%TO.P,J4,1,Pin_1*%
%TO.N,+9V*%
X135000000Y-140000000D03*
%TD*%
%TO.P,J2,1,Pin_1*%
%TO.N,Net-(J2-Pin_1)*%
X158000000Y-108500000D03*
%TD*%
D16*
%TO.P,RV1,1,1*%
%TO.N,Net-(U2-DGND)*%
X144475000Y-138075000D03*
%TO.P,RV1,2,2*%
%TO.N,Net-(R4-Pad1)*%
X147015000Y-138075000D03*
%TO.P,RV1,3,3*%
X149555000Y-138075000D03*
%TD*%
D15*
%TO.P,J3,1,Pin_1*%
%TO.N,GND*%
X117000000Y-140000000D03*
%TD*%
D10*
%TO.P,R1,1*%
%TO.N,+9V*%
X115500000Y-127000000D03*
D11*
%TO.P,R1,2*%
%TO.N,Net-(J1-Pin_1)*%
X115500000Y-116840000D03*
%TD*%
D10*
%TO.P,C4,1*%
%TO.N,Net-(U2-CC0)*%
X150500000Y-118000000D03*
%TO.P,C4,2*%
%TO.N,GND*%
X150500000Y-123000000D03*
%TD*%
%TO.P,R4,1*%
%TO.N,Net-(R4-Pad1)*%
X138000000Y-128080000D03*
D11*
%TO.P,R4,2*%
%TO.N,Net-(U2-VCO)*%
X138000000Y-117920000D03*
%TD*%
D19*
%TO.P,C8,1*%
%TO.N,Net-(U2-OP2-OUT)*%
X132777401Y-90000000D03*
D20*
%TO.P,C8,2*%
%TO.N,Net-(C8-Pad2)*%
X134277401Y-90000000D03*
%TD*%
D10*
%TO.P,C5,1*%
%TO.N,Net-(U2-OP1-IN)*%
X147500000Y-97500000D03*
%TO.P,C5,2*%
%TO.N,Net-(U2-OP1-OUT)*%
X147500000Y-102500000D03*
%TD*%
%TO.P,C3,1*%
%TO.N,Net-(U2-CC1)*%
X144500000Y-118000000D03*
%TO.P,C3,2*%
%TO.N,GND*%
X144500000Y-123000000D03*
%TD*%
%TO.P,R3,1*%
%TO.N,Net-(Q1-S)*%
X121500000Y-115420000D03*
D11*
%TO.P,R3,2*%
%TO.N,GND*%
X121500000Y-125580000D03*
%TD*%
D12*
%TO.P,C2,1*%
%TO.N,Net-(U1-VO)*%
X129500000Y-120500000D03*
D10*
%TO.P,C2,2*%
%TO.N,GND*%
X132000000Y-120500000D03*
%TD*%
D12*
%TO.P,C1,1*%
%TO.N,Net-(Q1-S)*%
X120000000Y-108455113D03*
D10*
%TO.P,C1,2*%
%TO.N,Net-(U2-LPF1-IN)*%
X120000000Y-106455113D03*
%TD*%
%TO.P,R2,1*%
%TO.N,Net-(J1-Pin_1)*%
X103500000Y-116920000D03*
D11*
%TO.P,R2,2*%
%TO.N,GND*%
X103500000Y-127080000D03*
%TD*%
D21*
%TO.N,Net-(U1-VO)*%
X127920000Y-114500000D02*
X127920000Y-118920000D01*
X126500000Y-128500000D02*
X126500000Y-123500000D01*
X126500000Y-123500000D02*
X129500000Y-120500000D01*
X127920000Y-118920000D02*
X129500000Y-120500000D01*
%TO.N,Net-(U2-CC1)*%
X144500000Y-118000000D02*
X144500000Y-115840000D01*
X144500000Y-115840000D02*
X143160000Y-114500000D01*
%TO.N,Net-(U2-CC0)*%
X147000000Y-114500000D02*
X150500000Y-118000000D01*
X145700000Y-114500000D02*
X147000000Y-114500000D01*
%TO.N,Net-(U2-OP1-OUT)*%
X145700000Y-104300000D02*
X147500000Y-102500000D01*
X145700000Y-106880000D02*
X145700000Y-104300000D01*
%TO.N,Net-(U2-OP1-IN)*%
X143160000Y-106880000D02*
X143160000Y-101840000D01*
X143160000Y-101840000D02*
X147500000Y-97500000D01*
%TO.N,Net-(U2-OP2-IN)*%
X141000000Y-106500000D02*
X140620000Y-106880000D01*
X141000000Y-102500000D02*
X141000000Y-106500000D01*
%TO.N,Net-(U2-OP2-OUT)*%
X132777401Y-99277401D02*
X132777401Y-90000000D01*
X136000000Y-102500000D02*
X132777401Y-99277401D01*
X138080000Y-106880000D02*
X138080000Y-104580000D01*
X138080000Y-104580000D02*
X136000000Y-102500000D01*
%TO.N,Net-(U2-LPF1-OUT)*%
X130460000Y-106880000D02*
X130460000Y-108460000D01*
X152500000Y-100500000D02*
X154500000Y-98500000D01*
X148500000Y-109500000D02*
X152500000Y-105500000D01*
X152500000Y-105500000D02*
X152500000Y-100500000D01*
X130460000Y-108460000D02*
X131500000Y-109500000D01*
X154500000Y-98500000D02*
X156000000Y-98500000D01*
X131500000Y-109500000D02*
X148500000Y-109500000D01*
%TO.N,Net-(J1-Pin_1)*%
X109500000Y-117090000D02*
X115250000Y-117090000D01*
X115250000Y-117090000D02*
X115500000Y-116840000D01*
%TO.N,+9V*%
X135000000Y-136000000D02*
X131500000Y-132500000D01*
X131500000Y-132500000D02*
X131500000Y-131500000D01*
X115500000Y-127000000D02*
X118000000Y-127000000D01*
X135000000Y-140000000D02*
X135000000Y-136000000D01*
X131500000Y-136500000D02*
X135000000Y-140000000D01*
X119000000Y-132500000D02*
X115500000Y-132500000D01*
X135000000Y-140000000D02*
X126500000Y-140000000D01*
X108230000Y-125230000D02*
X108230000Y-118360000D01*
X131580000Y-131420000D02*
X131580000Y-128500000D01*
X126500000Y-140000000D02*
X119000000Y-132500000D01*
X118000000Y-127000000D02*
X127500000Y-136500000D01*
X115500000Y-132500000D02*
X108230000Y-125230000D01*
X127500000Y-136500000D02*
X131500000Y-136500000D01*
X131500000Y-131500000D02*
X131580000Y-131420000D01*
%TO.N,Net-(U2-VCO)*%
X138000000Y-117920000D02*
X138000000Y-117120000D01*
X138000000Y-117120000D02*
X140620000Y-114500000D01*
%TO.N,Net-(U2-DGND)*%
X135540000Y-129140000D02*
X144475000Y-138075000D01*
X135540000Y-114500000D02*
X135540000Y-129140000D01*
%TD*%
M02*
