M48
; DRILL file {KiCad 8.0.5} date 2024-10-18T10:56:04-0500
; FORMAT={-:-/ absolute / metric / decimal}
; #@! TF.CreationDate,2024-10-18T10:56:04-05:00
; #@! TF.GenerationSoftware,Kicad,Pcbnew,8.0.5
; #@! TF.FileFunction,Plated,1,2,PTH
FMAT,2
METRIC
; #@! TA.AperFunction,Plated,PTH,ComponentDrill
T1C0.600
; #@! TA.AperFunction,Plated,PTH,ComponentDrill
T2C0.700
; #@! TA.AperFunction,Plated,PTH,ComponentDrill
T3C0.750
; #@! TA.AperFunction,Plated,PTH,ComponentDrill
T4C0.800
; #@! TA.AperFunction,Plated,PTH,ComponentDrill
T5C1.100
; #@! TA.AperFunction,Plated,PTH,ComponentDrill
T6C1.500
%
G90
G05
T1
X135.5Y-95.223
X135.5Y-96.723
X144.5Y-128.0
X144.5Y-130.0
T2
X148.0Y-132.42
X148.0Y-137.5
T3
X150.64Y-123.23
X150.64Y-124.5
X150.64Y-125.77
T4
X103.5Y-116.92
X103.5Y-127.08
X107.0Y-118.5
X109.54Y-118.5
X112.08Y-118.5
X113.5Y-92.84
X113.5Y-103.0
X115.5Y-116.92
X115.5Y-127.08
X117.5Y-103.0
X119.045Y-94.5
X120.0Y-108.455
X120.0Y-110.455
X121.045Y-94.5
X121.5Y-115.42
X121.5Y-125.58
X125.0Y-124.0
X125.445Y-94.5
X127.5Y-124.0
X127.66Y-103.0
X127.92Y-106.88
X127.92Y-114.5
X127.985Y-94.5
X129.5Y-120.5
X130.46Y-106.88
X130.46Y-114.5
X130.525Y-94.5
X131.5Y-135.5
X131.5Y-137.5
X132.0Y-120.5
X133.0Y-106.88
X133.0Y-114.5
X135.5Y-102.0
X135.54Y-106.88
X135.54Y-114.5
X138.0Y-120.92
X138.0Y-123.46
X138.0Y-126.0
X138.08Y-106.88
X138.08Y-114.5
X140.5Y-102.0
X140.62Y-106.88
X140.62Y-114.5
X143.16Y-106.88
X143.16Y-114.5
X143.5Y-102.0
X145.7Y-106.88
X145.7Y-114.5
X148.5Y-102.0
X149.0Y-112.5
X149.0Y-117.0
X153.5Y-95.5
X154.0Y-112.5
X154.0Y-117.0
X154.0Y-129.69
X154.0Y-137.31
X155.5Y-95.5
T5
X124.5Y-136.92
X124.5Y-147.08
X126.5Y-128.5
X129.04Y-128.5
X131.58Y-128.5
T6
X106.5Y-108.5
X117.0Y-144.5
X134.5Y-144.5
X160.0Y-104.0
M30
